<svg xmlns="http://www.w3.org/2000/svg" width="1280" height="470"><linearGradient id="a" x1="-401.186" x2="-401.186" y1="2599.151" y2="2600.185" gradientTransform="matrix(1280 0 0 470 514158 -1221616.75)" gradientUnits="userSpaceOnUse"><stop offset="0" stop-color="#010028" stop-opacity="0"/><stop offset=".204" stop-color="#4e1327" stop-opacity=".323"/><stop offset="1" stop-color="#0098FF"/></linearGradient><path fill="url(#a)" d="M0 0h1280v470H0z" opacity=".404"/><g opacity=".596"><linearGradient id="b" x1="-620.014" x2="-620.014" y1="3114.476" y2="3115.646" gradientTransform="matrix(1280 0 0 -254.143 794259 792033.813)" gradientUnits="userSpaceOnUse"><stop offset="0" stop-color="#0098FF"/><stop offset="1" stop-color="#1E1E1E"/></linearGradient><path fill="url(#b)" d="M1.4 469.1h1279.2v-254h-45.8l-15.1 152.2-44.2 44h-84v-86l-27.3-62.8h-29.5v86h-46.4v-50.8h-29.5V215h-29.7v162h-72v-83.7H808l-43 75.2h-56.7V322H680v-56.2h-8.6v-38.6h-13.3v184.1h-48.4V308.8h-30.3v43h-25.3v29.7H515V279.1h-32.8v125.6h-63.1v-62.6h-27v-41l-58.2 101.6H289v-46.5h-20.2v26.5h-46.6v40.7h-38.6v-60.6l-36.8-64.4v79.8H101v33.1H1.4v57.8z"/><g transform="translate(145.455 66.71)"><linearGradient id="c" x1="-631.999" x2="-631.999" y1="3003.136" y2="2996.105" gradientTransform="matrix(4.643 0 0 -46.527 3497.485 139822.078)" gradientUnits="userSpaceOnUse"><stop offset="0" stop-color="#0098FF"/><stop offset="1" stop-color="#F7E135"/></linearGradient><path fill="url(#c)" d="M560.8 255.3h4.6v46.5h-4.6z"/><linearGradient id="d" x1="-632.018" x2="-632.018" y1="3028.095" y2="3024.195" gradientTransform="matrix(4.643 0 0 -83.861 3646.54 254034.266)" gradientUnits="userSpaceOnUse"><stop offset="0" stop-color="#0098FF"/><stop offset="1" stop-color="#F7E135"/></linearGradient><path fill="url(#d)" d="M709.8 226.7h4.6v83.8h-4.6z"/><linearGradient id="e" x1="-746.485" x2="-746.485" y1="3041.805" y2="3039.608" gradientTransform="matrix(31.934 0 0 -148.866 24770.88 452916.531)" gradientUnits="userSpaceOnUse"><stop offset="0" stop-color="#0098FF"/><stop offset="1" stop-color="#F7E135"/></linearGradient><path fill="url(#e)" d="M944 344.6h4.6v-86l-27.3-62.8h-4.6l27.3 62.8v86z"/><linearGradient id="f" x1="-632.034" x2="-632.034" y1="3007.331" y2="3000.878" gradientTransform="matrix(4.643 0 0 -50.696 3777.687 152554.813)" gradientUnits="userSpaceOnUse"><stop offset="0" stop-color="#0098FF"/><stop offset="1" stop-color="#F7E135"/></linearGradient><path fill="url(#f)" d="M840.8 231h4.6v50.7h-4.6z"/><linearGradient id="g" x1="-632.03" x2="-632.03" y1="3026.71" y2="3022.755" gradientTransform="matrix(4.643 0 0 -82.724 3748.217 250476.719)" gradientUnits="userSpaceOnUse"><stop offset="0" stop-color="#0098FF"/><stop offset="1" stop-color="#F7E135"/></linearGradient><path fill="url(#g)" d="M811.4 148.3h4.6V231h-4.6z"/><linearGradient id="h" x1="-631.994" x2="-631.994" y1="2988.947" y2="2980.465" gradientTransform="matrix(4.643 0 0 -38.567 3460.624 115369.89)" gradientUnits="userSpaceOnUse"><stop offset="0" stop-color="#0098FF"/><stop offset="1" stop-color="#F7E135"/></linearGradient><path fill="url(#h)" d="M524 160.5h4.6V199H524z"/><linearGradient id="i" x1="-749.073" x2="-749.073" y1="3038.639" y2="3036.023" gradientTransform="matrix(36.861 0 0 -125.082 27631.305 380174.219)" gradientUnits="userSpaceOnUse"><stop offset="0" stop-color="#0098FF"/><stop offset="1" stop-color="#F7E135"/></linearGradient><path fill="url(#i)" d="M33.5 296.1v60.6h4.6v-60.6L1.3 231.7v8.1l32.2 56.3z"/><linearGradient id="j" x1="-631.945" x2="-631.945" y1="3003.871" y2="2996.84" gradientTransform="matrix(4.643 0 0 -46.527 3077.989 139856.281)" gradientUnits="userSpaceOnUse"><stop offset="0" stop-color="#0098FF"/><stop offset="1" stop-color="#F7E135"/></linearGradient><path fill="url(#j)" d="M141.5 289.5h4.6V336h-4.6z"/><linearGradient id="k" x1="-631.958" x2="-631.958" y1="2995.012" y2="2987.038" gradientTransform="matrix(4.643 0 0 -41.03 3178.532 122980.492)" gradientUnits="userSpaceOnUse"><stop offset="0" stop-color="#0098FF"/><stop offset="1" stop-color="#F7E135"/></linearGradient><path fill="url(#k)" d="M242 275.3h4.6v-41l-4.6 8.1v32.9z"/><linearGradient id="l" x1="-631.986" x2="-631.986" y1="3034.049" y2="3030.858" gradientTransform="matrix(4.643 0 0 -102.529 3398.936 311173.188)" gradientUnits="userSpaceOnUse"><stop offset="0" stop-color="#0098FF"/><stop offset="1" stop-color="#F7E135"/></linearGradient><path fill="url(#l)" d="M462.3 242.1h4.6v102.5h-4.6z"/></g><linearGradient id="m" x1="-600.173" x2="-600.173" y1="2328.993" y2="2316.117" gradientTransform="matrix(30.607 0 0 -3.506 18764.129 8511.662)" gradientUnits="userSpaceOnUse"><stop offset="0" stop-color="#0098FF"/><stop offset="1" stop-color="#F7E135"/></linearGradient><path fill="url(#m)" d="M379.3 353.8h30.6v3.5h-30.6z"/><linearGradient id="n" x1="-600.173" x2="-600.173" y1="2331.912" y2="2319.036" gradientTransform="matrix(30.607 0 0 -3.506 18764.129 8521.896)" gradientUnits="userSpaceOnUse"><stop offset="0" stop-color="#0098FF"/><stop offset="1" stop-color="#F7E135"/></linearGradient><path fill="url(#n)" d="M379.3 364h30.6v3.5h-30.6z"/><linearGradient id="o" x1="-600.173" x2="-600.173" y1="2334.858" y2="2321.982" gradientTransform="matrix(30.607 0 0 -3.506 18764.129 8532.225)" gradientUnits="userSpaceOnUse"><stop offset="0" stop-color="#0098FF"/><stop offset="1" stop-color="#F7E135"/></linearGradient><path fill="url(#o)" d="M379.3 374.3h30.6v3.5h-30.6z"/><linearGradient id="p" x1="-585.211" x2="-585.211" y1="2332.591" y2="2316.179" gradientTransform="matrix(17.625 0 0 -3.506 11005.534 8487.973)" gradientUnits="userSpaceOnUse"><stop offset="0" stop-color="#0098FF"/><stop offset="1" stop-color="#F7E135"/></linearGradient><path fill="url(#p)" d="M682.4 330.1H700v3.5h-17.6z"/><linearGradient id="q" x1="-585.211" x2="-585.211" y1="2335.51" y2="2319.098" gradientTransform="matrix(17.625 0 0 -3.506 11005.534 8498.206)" gradientUnits="userSpaceOnUse"><stop offset="0" stop-color="#0098FF"/><stop offset="1" stop-color="#F7E135"/></linearGradient><path fill="url(#q)" d="M682.4 340.4H700v3.5h-17.6z"/><linearGradient id="r" x1="-585.211" x2="-585.211" y1="2338.429" y2="2322.017" gradientTransform="matrix(17.625 0 0 -3.506 11005.534 8508.44)" gradientUnits="userSpaceOnUse"><stop offset="0" stop-color="#0098FF"/><stop offset="1" stop-color="#F7E135"/></linearGradient><path fill="url(#r)" d="M682.4 350.6H700v3.5h-17.6z"/><linearGradient id="s" x1="-577.313" x2="-577.313" y1="2262.742" y2="2242.655" gradientTransform="matrix(14.403 0 0 -3.222 8913.799 7586.255)" gradientUnits="userSpaceOnUse"><stop offset="0" stop-color="#0098FF"/><stop offset="1" stop-color="#F7E135"/></linearGradient><path fill="url(#s)" d="M591.6 316.4H606v3.2h-14.4z"/><linearGradient id="t" x1="-577.313" x2="-577.313" y1="2265.682" y2="2245.596" gradientTransform="matrix(14.403 0 0 -3.222 8913.799 7595.731)" gradientUnits="userSpaceOnUse"><stop offset="0" stop-color="#0098FF"/><stop offset="1" stop-color="#F7E135"/></linearGradient><path fill="url(#t)" d="M591.6 325.9H606v3.2h-14.4z"/><linearGradient id="u" x1="-577.313" x2="-577.313" y1="2268.654" y2="2248.567" gradientTransform="matrix(14.403 0 0 -3.222 8913.799 7605.301)" gradientUnits="userSpaceOnUse"><stop offset="0" stop-color="#0098FF"/><stop offset="1" stop-color="#F7E135"/></linearGradient><path fill="url(#u)" d="M591.6 335.4H606v3.2h-14.4z"/><linearGradient id="v" x1="-577.328" x2="-577.328" y1="2259.409" y2="2238.539" gradientTransform="matrix(14.403 0 0 -3.222 9285.253 7579.623)" gradientUnits="userSpaceOnUse"><stop offset="0" stop-color="#0098FF"/><stop offset="1" stop-color="#F7E135"/></linearGradient><path fill="url(#v)" d="M962.8 309.8h14.4v3.2h-14.4z"/><linearGradient id="w" x1="-577.328" x2="-577.328" y1="2262.35" y2="2241.479" gradientTransform="matrix(14.403 0 0 -3.222 9285.253 7589.099)" gradientUnits="userSpaceOnUse"><stop offset="0" stop-color="#0098FF"/><stop offset="1" stop-color="#F7E135"/></linearGradient><path fill="url(#w)" d="M962.8 319.2h14.4v3.2h-14.4z"/><linearGradient id="x" x1="-577.328" x2="-577.328" y1="2265.321" y2="2244.451" gradientTransform="matrix(14.403 0 0 -3.222 9285.253 7598.668)" gradientUnits="userSpaceOnUse"><stop offset="0" stop-color="#0098FF"/><stop offset="1" stop-color="#F7E135"/></linearGradient><path fill="url(#x)" d="M962.8 328.8h14.4v3.2h-14.4z"/><linearGradient id="y" x1="-577.328" x2="-577.328" y1="2268.262" y2="2247.392" gradientTransform="matrix(14.403 0 0 -3.222 9285.253 7608.145)" gradientUnits="userSpaceOnUse"><stop offset="0" stop-color="#0098FF"/><stop offset="1" stop-color="#F7E135"/></linearGradient><path fill="url(#y)" d="M962.8 338.3h14.4v3.2h-14.4z"/><linearGradient id="z" x1="-577.328" x2="-577.328" y1="2271.232" y2="2250.363" gradientTransform="matrix(14.403 0 0 -3.222 9285.253 7617.715)" gradientUnits="userSpaceOnUse"><stop offset="0" stop-color="#0098FF"/><stop offset="1" stop-color="#F7E135"/></linearGradient><path fill="url(#z)" d="M962.8 347.8h14.4v3.2h-14.4z"/><linearGradient id="A" x1="-577.328" x2="-577.328" y1="2274.173" y2="2253.303" gradientTransform="matrix(14.403 0 0 -3.222 9285.253 7627.191)" gradientUnits="userSpaceOnUse"><stop offset="0" stop-color="#0098FF"/><stop offset="1" stop-color="#F7E135"/></linearGradient><path fill="url(#A)" d="M962.8 357.3h14.4v3.2h-14.4z"/><linearGradient id="B" x1="-552.852" x2="-552.852" y1="2257.228" y2="2233.977" gradientTransform="matrix(9.192 0 0 -3.222 6022.974 7494.623)" gradientUnits="userSpaceOnUse"><stop offset="0" stop-color="#0098FF"/><stop offset="1" stop-color="#F7E135"/></linearGradient><path fill="url(#B)" d="M936.6 224.8h9.2v3.2h-9.2z"/><linearGradient id="C" x1="-552.852" x2="-552.852" y1="2260.199" y2="2236.948" gradientTransform="matrix(9.192 0 0 -3.222 6022.974 7504.194)" gradientUnits="userSpaceOnUse"><stop offset="0" stop-color="#0098FF"/><stop offset="1" stop-color="#F7E135"/></linearGradient><path fill="url(#C)" d="M936.6 234.4h9.2v3.2h-9.2z"/><linearGradient id="D" x1="-552.852" x2="-552.852" y1="2263.14" y2="2239.889" gradientTransform="matrix(9.192 0 0 -3.222 6022.974 7513.67)" gradientUnits="userSpaceOnUse"><stop offset="0" stop-color="#0098FF"/><stop offset="1" stop-color="#F7E135"/></linearGradient><path fill="url(#D)" d="M936.6 243.8h9.2v3.2h-9.2z"/><linearGradient id="E" x1="-552.852" x2="-552.852" y1="2266.11" y2="2242.859" gradientTransform="matrix(9.192 0 0 -3.222 6022.974 7523.24)" gradientUnits="userSpaceOnUse"><stop offset="0" stop-color="#0098FF"/><stop offset="1" stop-color="#F7E135"/></linearGradient><path fill="url(#E)" d="M936.6 253.4h9.2v3.2h-9.2z"/><linearGradient id="F" x1="-552.852" x2="-552.852" y1="2269.052" y2="2245.801" gradientTransform="matrix(9.192 0 0 -3.222 6022.974 7532.716)" gradientUnits="userSpaceOnUse"><stop offset="0" stop-color="#0098FF"/><stop offset="1" stop-color="#F7E135"/></linearGradient><path fill="url(#F)" d="M936.6 262.9h9.2v3.2h-9.2z"/><linearGradient id="G" x1="-552.852" x2="-552.852" y1="2272.022" y2="2248.771" gradientTransform="matrix(9.192 0 0 -3.222 6022.974 7542.288)" gradientUnits="userSpaceOnUse"><stop offset="0" stop-color="#0098FF"/><stop offset="1" stop-color="#F7E135"/></linearGradient><path fill="url(#G)" d="M936.6 272.4h9.2v3.2h-9.2z"/><g transform="translate(0 243.53)"><linearGradient id="H" x1="-620.014" x2="-620.014" y1="2845.724" y2="2848.289" gradientTransform="matrix(1280 0 0 -78.271 794259 223010.797)" gradientUnits="userSpaceOnUse"><stop offset="0" stop-color="#0098FF"/><stop offset="1" stop-color="#1E1E1E"/></linearGradient><path fill="url(#H)" d="M1.4 226.5v-26l77.8-47.8h38.4l51.8 31.6h176.1l30.3-36h58.7l31.3 57.4H569l18.9-47.5h79.6l17 20.5h67l54.2-30.3h88.4l94.1 44.9h123.7l56.3 12.5h36.8l54.1-38.4 21.4 13.3v46H1.4z"/><g transform="translate(106.888)"><linearGradient id="I" x1="-721.889" x2="-720.89" y1="2820.214" y2="2820.214" gradientTransform="matrix(103.666 0 0 -44.916 75613.227 126843.484)" gradientUnits="userSpaceOnUse"><stop offset="0" stop-color="#0098FF"/><stop offset="1" stop-color="#F7E135"/></linearGradient><path fill="url(#I)" d="M881.5 193.1l-94.1-44.9h-9.5l94.1 44.9h9.5z"/><linearGradient id="J" x1="-718.434" x2="-717.434" y1="2658.453" y2="2658.453" gradientTransform="matrix(65.7629 0 0 -12.508 48242.02 33451.309)" gradientUnits="userSpaceOnUse"><stop offset="0" stop-color="#0098FF"/><stop offset="1" stop-color="#F7E135"/></linearGradient><path fill="url(#J)" d="M1061.4 205.6l-56.3-12.5h-9.5l56.3 12.5h9.5z"/><path fill="#F7E135" d="M359 205.6l-31.3-57.4h-9.5l31.3 57.4h9.5z"/><linearGradient id="K" x1="-717.737" x2="-716.738" y1="2794.043" y2="2794.043" gradientTransform="matrix(61.309 0 0 -31.649 44005.078 88597.047)" gradientUnits="userSpaceOnUse"><stop offset="0" stop-color="#0098FF"/><stop offset="1" stop-color="#F7E135"/></linearGradient><path fill="url(#K)" d="M10.8 152.6H1.3l51.8 31.6h9.5"/></g><linearGradient id="L" x1="-599.183" x2="-599.183" y1="2204.679" y2="2236.68" gradientTransform="matrix(29.186 0 0 -4.264 17879.89 9653.498)" gradientUnits="userSpaceOnUse"><stop offset="0" stop-color="#0098FF"/><stop offset="1" stop-color="#F7E135"/></linearGradient><path fill="url(#L)" d="M377.5 168.3h29.2V164h-29.2v4.3z"/><linearGradient id="M" x1="-599.183" x2="-599.183" y1="2206.44" y2="2238.44" gradientTransform="matrix(29.186 0 0 -4.264 17879.89 9661.072)" gradientUnits="userSpaceOnUse"><stop offset="0" stop-color="#0098FF"/><stop offset="1" stop-color="#F7E135"/></linearGradient><path fill="url(#M)" d="M377.5 175.8h29.2v-4.3h-29.2v4.3z"/><linearGradient id="N" x1="-599.183" x2="-599.183" y1="2208.195" y2="2240.196" gradientTransform="matrix(29.186 0 0 -4.264 17879.89 9668.559)" gradientUnits="userSpaceOnUse"><stop offset="0" stop-color="#0098FF"/><stop offset="1" stop-color="#F7E135"/></linearGradient><path fill="url(#N)" d="M377.5 183.3h29.2V179h-29.2v4.3z"/><linearGradient id="O" x1="-599.183" x2="-599.183" y1="2209.951" y2="2241.951" gradientTransform="matrix(29.186 0 0 -4.264 17879.89 9676.044)" gradientUnits="userSpaceOnUse"><stop offset="0" stop-color="#0098FF"/><stop offset="1" stop-color="#F7E135"/></linearGradient><path fill="url(#O)" d="M377.5 190.8h29.2v-4.3h-29.2v4.3z"/><linearGradient id="P" x1="-599.183" x2="-599.183" y1="2226.313" y2="2257.618" gradientTransform="matrix(29.186 0 0 -4.359 17879.89 9957.25)" gradientUnits="userSpaceOnUse"><stop offset="0" stop-color="#0098FF"/><stop offset="1" stop-color="#F7E135"/></linearGradient><path fill="url(#P)" d="M377.5 198.2h29.2v-4.4h-29.2v4.4z"/></g><linearGradient id="Q" x1="-615.599" x2="-615.599" y1="3112.801" y2="3113.899" gradientTransform="matrix(126.975 0 0 -218.04 78230.477 679188.375)" gradientUnits="userSpaceOnUse"><stop offset="0" stop-color="#0098FF"/><stop offset="1" stop-color="#1E1E1E"/></linearGradient><path fill="url(#Q)" d="M1.4 462.3V431l36.2-23.1V252s32.2 14.3 32.2 55.1v35.1s17.1 12.1 25.1 30.9c8 18.8 5.9 44.7 5.9 44.7h27.6v52.1H1.4v-7.6z"/><g transform="translate(36.198 103.761)"><linearGradient id="R" x1="-479.201" x2="-479.201" y1="2969.205" y2="2972.604" gradientTransform="matrix(3.506 0 0 -52.117 1770.41 155055.25)" gradientUnits="userSpaceOnUse"><stop offset="0" stop-color="#0098FF"/><stop offset="1" stop-color="#F7E135"/></linearGradient><path fill="url(#R)" d="M88.6 314.2h3.5v52.1h-3.5z"/><linearGradient id="S" x1="-646.89" x2="-646.89" y1="3005.045" y2="3006.113" gradientTransform="matrix(63.4504 0 0 -165.922 41078.477 498912.281)" gradientUnits="userSpaceOnUse"><stop offset="0" stop-color="#0098FF"/><stop offset="1" stop-color="#F7E135"/></linearGradient><path fill="url(#S)" d="M30.1 203.4v35.1s17.1 12.1 25.1 30.9c8 18.8 5.9 44.7 5.9 44.7h3.5s2.1-25.9-5.9-44.7c-8-18.8-25.1-30.9-25.1-30.9v-35.1c0-40.8-32.2-55.1-32.2-55.1v1.9c8.3 5 28.7 20.8 28.7 53.2z"/></g><linearGradient id="T" x1="-584.712" x2="-583.713" y1="2029.892" y2="2029.892" gradientTransform="matrix(17.151 0 0 -2.558 10068.905 5493.843)" gradientUnits="userSpaceOnUse"><stop offset="0" stop-color="#0098FF"/><stop offset="1" stop-color="#F7E135"/></linearGradient><path fill="url(#T)" d="M40.5 300.1h17.1v2.6H40.5z"/><linearGradient id="U" x1="-584.712" x2="-583.713" y1="2029.893" y2="2029.893" gradientTransform="matrix(17.151 0 0 -2.558 10068.905 5498.676)" gradientUnits="userSpaceOnUse"><stop offset="0" stop-color="#0098FF"/><stop offset="1" stop-color="#F7E135"/></linearGradient><path fill="url(#U)" d="M40.5 304.9h17.1v2.6H40.5z"/><linearGradient id="V" x1="-584.712" x2="-583.713" y1="2029.894" y2="2029.894" gradientTransform="matrix(17.151 0 0 -2.558 10068.905 5503.51)" gradientUnits="userSpaceOnUse"><stop offset="0" stop-color="#0098FF"/><stop offset="1" stop-color="#F7E135"/></linearGradient><path fill="url(#V)" d="M40.5 309.8h17.1v2.6H40.5z"/><linearGradient id="W" x1="-584.712" x2="-583.713" y1="2029.895" y2="2029.895" gradientTransform="matrix(17.151 0 0 -2.558 10068.905 5508.341)" gradientUnits="userSpaceOnUse"><stop offset="0" stop-color="#0098FF"/><stop offset="1" stop-color="#F7E135"/></linearGradient><path fill="url(#W)" d="M40.5 314.6h17.1v2.6H40.5z"/><linearGradient id="X" x1="-584.712" x2="-583.713" y1="2029.896" y2="2029.896" gradientTransform="matrix(17.151 0 0 -2.558 10068.905 5513.08)" gradientUnits="userSpaceOnUse"><stop offset="0" stop-color="#0098FF"/><stop offset="1" stop-color="#F7E135"/></linearGradient><path fill="url(#X)" d="M40.5 319.3h17.1v2.6H40.5z"/><linearGradient id="Y" x1="-584.712" x2="-583.713" y1="2029.897" y2="2029.897" gradientTransform="matrix(17.151 0 0 -2.558 10068.905 5517.913)" gradientUnits="userSpaceOnUse"><stop offset="0" stop-color="#0098FF"/><stop offset="1" stop-color="#F7E135"/></linearGradient><path fill="url(#Y)" d="M40.5 324.2h17.1v2.6H40.5z"/><linearGradient id="Z" x1="-584.712" x2="-583.713" y1="2029.898" y2="2029.898" gradientTransform="matrix(17.151 0 0 -2.558 10068.905 5522.746)" gradientUnits="userSpaceOnUse"><stop offset="0" stop-color="#0098FF"/><stop offset="1" stop-color="#F7E135"/></linearGradient><path fill="url(#Z)" d="M40.5 329h17.1v2.6H40.5z"/><linearGradient id="aa" x1="-584.712" x2="-583.713" y1="2029.899" y2="2029.899" gradientTransform="matrix(17.151 0 0 -2.558 10068.905 5527.577)" gradientUnits="userSpaceOnUse"><stop offset="0" stop-color="#0098FF"/><stop offset="1" stop-color="#F7E135"/></linearGradient><path fill="url(#aa)" d="M40.5 333.8h17.1v2.6H40.5z"/><linearGradient id="ab" x1="-584.712" x2="-583.713" y1="2029.9" y2="2029.9" gradientTransform="matrix(17.151 0 0 -2.558 10068.905 5532.41)" gradientUnits="userSpaceOnUse"><stop offset="0" stop-color="#0098FF"/><stop offset="1" stop-color="#F7E135"/></linearGradient><path fill="url(#ab)" d="M40.5 338.6h17.1v2.6H40.5z"/><linearGradient id="ac" x1="-617.18" x2="-617.18" y1="3113.832" y2="3114.862" gradientTransform="matrix(187.433 0 0 -236.9 115920.734 738138.625)" gradientUnits="userSpaceOnUse"><stop offset="0" stop-color="#0098FF"/><stop offset="1" stop-color="#1E1E1E"/></linearGradient><path fill="url(#ac)" d="M309.5 412.7h-41.7l-15.2-12h-23.4v-31.9l-9.5-14V233.1l-45.2 34.4v87.3c-15.2 0-27.5 12.3-27.6 27.5v87.6h187.3v-41.7l-24.7-15.5z"/><g transform="translate(213.87 84.809)"><linearGradient id="ad" x1="-790.593" x2="-790.593" y1="3024.127" y2="3025.284" gradientTransform="matrix(14.214 0 0 -167.723 11245.846 507535.219)" gradientUnits="userSpaceOnUse"><stop offset="0" stop-color="#0098FF"/><stop offset="1" stop-color="#F7E135"/></linearGradient><path fill="url(#ad)" d="M1.3 151.9V270l9.5 14v32h4.7v-32L6 270V148.3l-4.7 3.6z"/></g><linearGradient id="ae" x1="-614.013" x2="-614.013" y1="3116.1" y2="3117.074" gradientTransform="matrix(95.9 0 0 -291.762 59350.8 909619.5)" gradientUnits="userSpaceOnUse"><stop offset="0" stop-color="#0098FF"/><stop offset="1" stop-color="#1E1E1E"/></linearGradient><path fill="url(#ae)" d="M514.9 233.1c-.9-30.6-25.9-54.9-56.5-54.9v92.1c-22.9 7.3-38.6 28.3-39.3 52.3v147.3h95.8V233.1z"/><linearGradient id="af" x1="-609.503" x2="-609.503" y1="3115.096" y2="3116.232" gradientTransform="matrix(56.571 0 0 -264.66 34966.906 824880.25)" gradientUnits="userSpaceOnUse"><stop offset="0" stop-color="#0098FF"/><stop offset="1" stop-color="#F7E135"/></linearGradient><path fill="url(#af)" d="M515 233.1c-.9-30.6-25.9-54.9-56.5-54.9v.5c27.7 3.4 48.7 26.6 49.5 54.5v209.6l6.9-5.4V322.6l.1-89.5z"/><linearGradient id="ag" x1="-605.021" x2="-605.021" y1="3111.142" y2="3112.135" gradientTransform="matrix(40.178 0 0 -193.023 25093.185 600993.25)" gradientUnits="userSpaceOnUse"><stop offset="0" stop-color="#0098FF"/><stop offset="1" stop-color="#1E1E1E"/></linearGradient><path fill="url(#ag)" d="M764.6 277v192.9h40.2V291.2L764.6 277z"/><g transform="translate(179.378 123.66)"><linearGradient id="ah" x1="-778.831" x2="-778.831" y1="2489.266" y2="2530.581" gradientTransform="matrix(29.565 0 0 -5.686 23042.176 14419.155)" gradientUnits="userSpaceOnUse"><stop offset="0" stop-color="#0098FF"/><stop offset="1" stop-color="#F7E135"/></linearGradient><path fill="url(#ah)" d="M1.3 148.3h29.5v5.7H1.3z"/><linearGradient id="ai" x1="-778.831" x2="-778.831" y1="2491.016" y2="2532.331" gradientTransform="matrix(29.565 0 0 -5.686 23042.176 14429.105)" gradientUnits="userSpaceOnUse"><stop offset="0" stop-color="#0098FF"/><stop offset="1" stop-color="#F7E135"/></linearGradient><path fill="url(#ai)" d="M1.3 158.3h29.5v5.7H1.3z"/><linearGradient id="aj" x1="-778.831" x2="-778.831" y1="2492.766" y2="2534.081" gradientTransform="matrix(29.565 0 0 -5.686 23042.176 14439.054)" gradientUnits="userSpaceOnUse"><stop offset="0" stop-color="#0098FF"/><stop offset="1" stop-color="#F7E135"/></linearGradient><path fill="url(#aj)" d="M1.3 168.2h29.5v5.7H1.3z"/><linearGradient id="ak" x1="-778.831" x2="-778.831" y1="2494.516" y2="2535.831" gradientTransform="matrix(29.565 0 0 -5.686 23042.176 14449.004)" gradientUnits="userSpaceOnUse"><stop offset="0" stop-color="#0098FF"/><stop offset="1" stop-color="#F7E135"/></linearGradient><path fill="url(#ak)" d="M1.3 178.1h29.5v5.7H1.3z"/><linearGradient id="al" x1="-778.831" x2="-778.831" y1="2496.266" y2="2537.581" gradientTransform="matrix(29.565 0 0 -5.686 23042.176 14458.954)" gradientUnits="userSpaceOnUse"><stop offset="0" stop-color="#0098FF"/><stop offset="1" stop-color="#F7E135"/></linearGradient><path fill="url(#al)" d="M1.3 188.1h29.5v5.7H1.3z"/></g><linearGradient id="am" x1="-616.087" x2="-616.087" y1="3109.91" y2="3110.941" gradientTransform="matrix(140.905 0 0 -178.052 87844.492 554198.813)" gradientUnits="userSpaceOnUse"><stop offset="0" stop-color="#0098FF"/><stop offset="1" stop-color="#1E1E1E"/></linearGradient><path fill="url(#am)" d="M983.1 426.9h31.3l11.4-9h17.5v-24l7.1-10.5V292l34 25.9v65.6c11.5 0 20.7 9.3 20.7 20.7v65.7H964.3v-31.3l18.8-11.7z"/><linearGradient id="an" x1="-609.148" x2="-609.148" y1="3108.826" y2="3109.782" gradientTransform="matrix(54.7711 0 0 -165.732 34441.508 515678.094)" gradientUnits="userSpaceOnUse"><stop offset="0" stop-color="#0098FF"/><stop offset="1" stop-color="#F7E135"/></linearGradient><path fill="url(#an)" d="M1084.4 383.3v-65.6l-34-25.9v3.6l29.3 22.3v65.6c11.5 0 20.7 9.3 20.7 20.7v53.4l4.7-4.1v-49.2c.1-11.4-9.2-20.7-20.7-20.8z"/><linearGradient id="ao" x1="-587.528" x2="-587.528" y1="2470.309" y2="2459.546" gradientTransform="matrix(18.8571 0 0 -4.264 12143.232 10855.174)" gradientUnits="userSpaceOnUse"><stop offset="0" stop-color="#0098FF"/><stop offset="1" stop-color="#F7E135"/></linearGradient><path fill="url(#ao)" d="M1054.8 331.5h18.8v-4.3h-18.8v4.3z"/><linearGradient id="ap" x1="-587.528" x2="-587.528" y1="2472.061" y2="2461.299" gradientTransform="matrix(18.8571 0 0 -4.264 12143.232 10862.612)" gradientUnits="userSpaceOnUse"><stop offset="0" stop-color="#0098FF"/><stop offset="1" stop-color="#F7E135"/></linearGradient><path fill="url(#ap)" d="M1054.8 339h18.8v-4.3h-18.8v4.3z"/><linearGradient id="aq" x1="-587.528" x2="-587.528" y1="2473.82" y2="2463.057" gradientTransform="matrix(18.8571 0 0 -4.264 12143.232 10870.147)" gradientUnits="userSpaceOnUse"><stop offset="0" stop-color="#0098FF"/><stop offset="1" stop-color="#F7E135"/></linearGradient><path fill="url(#aq)" d="M1054.8 346.5h18.8v-4.3h-18.8v4.3z"/><linearGradient id="ar" x1="-587.528" x2="-587.528" y1="2475.572" y2="2464.811" gradientTransform="matrix(18.8571 0 0 -4.264 12143.232 10877.584)" gradientUnits="userSpaceOnUse"><stop offset="0" stop-color="#0098FF"/><stop offset="1" stop-color="#F7E135"/></linearGradient><path fill="url(#ar)" d="M1054.8 354h18.8v-4.3h-18.8v4.3z"/><linearGradient id="as" x1="-587.528" x2="-587.528" y1="2477.331" y2="2466.568" gradientTransform="matrix(18.8571 0 0 -4.264 12143.232 10885.118)" gradientUnits="userSpaceOnUse"><stop offset="0" stop-color="#0098FF"/><stop offset="1" stop-color="#F7E135"/></linearGradient><path fill="url(#as)" d="M1054.8 361.5h18.8v-4.3h-18.8v4.3z"/><linearGradient id="at" x1="-467.837" x2="-467.837" y1="3113.068" y2="3111.266" gradientTransform="matrix(4.075 0 0 -204.679 2373.229 637362.313)" gradientUnits="userSpaceOnUse"><stop offset="0" stop-color="#0098FF"/><stop offset="1" stop-color="#F7E135"/></linearGradient><path fill="url(#at)" d="M464.8 201.5h4.1v204.6h-4.1z"/><linearGradient id="au" x1="-467.838" x2="-467.838" y1="3113.068" y2="3111.266" gradientTransform="matrix(4.075 0 0 -204.679 2382.042 637362.313)" gradientUnits="userSpaceOnUse"><stop offset="0" stop-color="#0098FF"/><stop offset="1" stop-color="#F7E135"/></linearGradient><path fill="url(#au)" d="M473.6 201.5h4.1v204.6h-4.1z"/><g transform="translate(546.947 15.825)"><linearGradient id="av" x1="-1164.572" x2="-1164.572" y1="3100.675" y2="3101.74" gradientTransform="matrix(216.334 0 0 -306.0171 252045.625 949317.875)" gradientUnits="userSpaceOnUse"><stop offset="0" stop-color="#0098FF"/><stop offset="1" stop-color="#1E1E1E"/></linearGradient><path fill="url(#av)" d="M174.6 414.7l-14.1-29H133v-121l23.6-13.6c4.5-2.7 8.2-9 8.2-14.2v-36c0-5.2-3.7-11.6-8.2-14.2l-31.3-18c-2.4-1.3-5.1-1.9-7.9-2v-16.6c0-.9-.7-1.7-1.7-1.7-.9 0-1.7.7-1.7 1.7V167c-1.8.2-3.5.8-5 1.7l-31.3 18c-4.5 2.7-8.2 9-8.2 14.2V237c0 5.2 3.7 11.6 8.2 14.2l24 13.8v149.8H49.5L1.1 454.2h216.2v-39.5h-42.7z"/><g transform="translate(114.847 18.319)"><linearGradient id="aw" x1="-1245.627" x2="-1245.627" y1="2992.769" y2="3004.06" gradientTransform="matrix(16.962 0 0 -29 21179.682 87246.61)" gradientUnits="userSpaceOnUse"><stop offset="0" stop-color="#0098FF"/><stop offset="1" stop-color="#F7E135"/></linearGradient><path fill="url(#aw)" d="M42.8 367.4l14.1 29h2.8l-14.1-29h-2.8z"/><linearGradient id="ax" x1="-1063.536" x2="-1063.536" y1="3020.048" y2="3028.334" gradientTransform="matrix(2.843 0 0 -39.514 3124.722 119790.5)" gradientUnits="userSpaceOnUse"><stop offset="0" stop-color="#0098FF"/><stop offset="1" stop-color="#F7E135"/></linearGradient><path fill="url(#ax)" d="M99.7 396.4h2.8v39.5h-2.8z"/><linearGradient id="ay" x1="-1269.647" x2="-1269.647" y1="3078.332" y2="3079.826" gradientTransform="matrix(49.179 0 0 -219.1635 62465.55 675114.25)" gradientUnits="userSpaceOnUse"><stop offset="0" stop-color="#0098FF"/><stop offset="1" stop-color="#F7E135"/></linearGradient><path fill="url(#ay)" d="M7.8 150.2l31.3 18c4.5 2.7 8.2 9 8.2 14.2v36.1c0 5.2-3.7 11.6-8.2 14.2l-23.6 13.6v121h2.8v-121l23.6-13.6c4.5-2.7 8.2-9 8.2-14.2v-36c0-5.2-3.7-11.6-8.2-14.2l-31.3-18c-3-1.6-6.3-2.2-9.7-1.9 2.5.1 4.8.7 6.9 1.8z"/></g><linearGradient id="az" x1="-1145.771" x2="-1144.77" y1="2910.385" y2="2910.385" gradientTransform="matrix(28.048 0 0 -14.024 32235.906 41032.285)" gradientUnits="userSpaceOnUse"><stop offset="0" stop-color="#0098FF"/><stop offset="1" stop-color="#F7E135"/></linearGradient><path fill="url(#az)" d="M113.4 218.2l-9-5.2-5 2.9 14 8.1 14-8.1V210l-14 8.2z"/><linearGradient id="aA" x1="-1123.595" x2="-1122.594" y1="2907.653" y2="2907.653" gradientTransform="matrix(14.024 0 0 -13.835 15856.633 40438.64)" gradientUnits="userSpaceOnUse"><stop offset="0" stop-color="#0098FF"/><stop offset="1" stop-color="#F7E135"/></linearGradient><path fill="url(#aA)" d="M99.4 210l14 8.1v-5.8l-14-8.1v5.8z"/><linearGradient id="aB" x1="-1123.595" x2="-1122.594" y1="2907.639" y2="2907.639" gradientTransform="matrix(14.024 0 0 -13.834 15856.633 40447.09)" gradientUnits="userSpaceOnUse"><stop offset="0" stop-color="#0098FF"/><stop offset="1" stop-color="#F7E135"/></linearGradient><path fill="url(#aB)" d="M99.4 221.7l14 8V224l-14-8.1v5.8z"/><linearGradient id="aC" x1="-1149.192" x2="-1148.193" y1="2963.842" y2="2963.842" gradientTransform="matrix(33.165 0 0 -19.141 38212.297 56933.734)" gradientUnits="userSpaceOnUse"><stop offset="0" stop-color="#0098FF"/><stop offset="1" stop-color="#F7E135"/></linearGradient><path fill="url(#aC)" d="M118.4 193.3l-19 11.1 14 8 19.1-11.1-14.1-8z"/></g><g transform="translate(768.966 146.686)"><linearGradient id="aD" x1="-1368.43" x2="-1368.43" y1="2768.927" y2="2772.506" gradientTransform="matrix(29.565 0 0 -13.456 40473.348 37442.742)" gradientUnits="userSpaceOnUse"><stop offset="0" stop-color="#0098FF"/><stop offset="1" stop-color="#F7E135"/></linearGradient><path fill="url(#aD)" d="M30.5 161.8H.9v-13.4l29.5 7.8v5.6z"/><linearGradient id="aE" x1="-1368.43" x2="-1368.43" y1="2483.623" y2="2492.093" gradientTransform="matrix(29.565 0 0 -5.686 40473.344 14305.95)" gradientUnits="userSpaceOnUse"><stop offset="0" stop-color="#0098FF"/><stop offset="1" stop-color="#F7E135"/></linearGradient><path fill="url(#aE)" d="M.9 166h29.5v5.7H.9z"/><linearGradient id="aF" x1="-1368.43" x2="-1368.43" y1="2485.373" y2="2493.843" gradientTransform="matrix(29.565 0 0 -5.686 40473.344 14315.9)" gradientUnits="userSpaceOnUse"><stop offset="0" stop-color="#0098FF"/><stop offset="1" stop-color="#F7E135"/></linearGradient><path fill="url(#aF)" d="M.9 176h29.5v5.7H.9z"/></g><g transform="translate(629.577 145.928)"><linearGradient id="aG" x1="-1228.124" x2="-1228.124" y1="2963.78" y2="2964.768" gradientTransform="matrix(28.3331 0 0 -175.683 34811.684 521011.031)" gradientUnits="userSpaceOnUse"><stop offset="0" stop-color="#0098FF"/><stop offset="1" stop-color="#1E1E1E"/></linearGradient><path fill="url(#aG)" d="M1 176.6v147.3h28.3V148.3C13.7 148.3 1 160.9 1 176.6z"/><linearGradient id="aH" x1="-1228.126" x2="-1228.126" y1="2959.525" y2="2960.777" gradientTransform="matrix(28.333 0 0 -138.727 34922.098 410891.313)" gradientUnits="userSpaceOnUse"><stop offset="0" stop-color="#0098FF"/><stop offset="1" stop-color="#1E1E1E"/></linearGradient><path fill="url(#aH)" d="M111.4 213.6v110.3h28.3V185.2c-15.6 0-28.3 12.7-28.3 28.4z"/></g><linearGradient id="aI" x1="-501.161" x2="-501.161" y1="3107.749" y2="3108.691" gradientTransform="matrix(5.212 0 0 -154.93 3268.24 481906)" gradientUnits="userSpaceOnUse"><stop offset="0" stop-color="#0098FF"/><stop offset="1" stop-color="#F7E135"/></linearGradient><path fill="url(#aI)" d="M653.6 294.8v154.3l5.2-4.9v-150c-1.7 0-3.5.2-5.2.6z"/><linearGradient id="aJ" x1="-501.174" x2="-501.174" y1="3096.111" y2="3097.258" gradientTransform="matrix(5.212 0 0 -94.9491 3378.823 294401.906)" gradientUnits="userSpaceOnUse"><stop offset="0" stop-color="#0098FF"/><stop offset="1" stop-color="#F7E135"/></linearGradient><path fill="url(#aJ)" d="M764.1 331.7V426l5.2-4.3v-90.6c-1.7.1-3.5.3-5.2.6z"/><linearGradient id="aK" x1="-610.357" x2="-610.357" y1="3116.947" y2="3117.967" gradientTransform="matrix(61.309 0 0 -321.706 38313.543 1003214.813)" gradientUnits="userSpaceOnUse"><stop offset="0" stop-color="#0098FF"/><stop offset="1" stop-color="#1E1E1E"/></linearGradient><path fill="url(#aK)" d="M915.2 250.3v-26.1H909v-12.4l-7.9-7.4v-11.3h-6.8v-44.7H892v44.7h-6.7v11.3l-8 7.4v12.4h-6.1v26.1h-8.7v219.6h61.3V250.3h-8.6z"/><g transform="translate(891.11 44.726)"><linearGradient id="aL" x1="-1484.825" x2="-1484.825" y1="3029.086" y2="3033.298" gradientTransform="matrix(23.216 0 0 -57.234 34484.152 173736.39)" gradientUnits="userSpaceOnUse"><stop offset="0" stop-color="#0098FF"/><stop offset="1" stop-color="#F7E135"/></linearGradient><path fill="url(#aL)" d="M.9 148.4h.6v11.3l8 7.4v12.4h6.1v26.1h8.6v-26.1H18V167l-7.9-7.4v-11.3H3.2"/><linearGradient id="aM" x1="-1438.693" x2="-1438.693" y1="3066.466" y2="3067.724" gradientTransform="matrix(8.528 0 0 -191.7 12297.607 588211.188)" gradientUnits="userSpaceOnUse"><stop offset="0" stop-color="#0098FF"/><stop offset="1" stop-color="#F7E135"/></linearGradient><path fill="url(#aM)" d="M24.1 205.6v191.6l8.5-8.9V205.6h-8.5z"/></g><g transform="translate(870.737 117.501)"><linearGradient id="aN" x1="-1470.204" x2="-1470.204" y1="2517.786" y2="2506.126" gradientTransform="matrix(29.565 0 0 -5.686 43482.207 14454.175)" gradientUnits="userSpaceOnUse"><stop offset="0" stop-color="#0098FF"/><stop offset="1" stop-color="#F7E135"/></linearGradient><path fill="url(#aN)" d="M.9 148.3h29.5v5.7H.9z"/><linearGradient id="aO" x1="-1470.204" x2="-1470.204" y1="2519.536" y2="2507.876" gradientTransform="matrix(29.565 0 0 -5.686 43482.207 14464.125)" gradientUnits="userSpaceOnUse"><stop offset="0" stop-color="#0098FF"/><stop offset="1" stop-color="#F7E135"/></linearGradient><path fill="url(#aO)" d="M.9 158.3h29.5v5.7H.9z"/><linearGradient id="aP" x1="-1470.204" x2="-1470.204" y1="2521.286" y2="2509.626" gradientTransform="matrix(29.565 0 0 -5.686 43482.207 14474.074)" gradientUnits="userSpaceOnUse"><stop offset="0" stop-color="#0098FF"/><stop offset="1" stop-color="#F7E135"/></linearGradient><path fill="url(#aP)" d="M.9 168.2h29.5v5.7H.9z"/><linearGradient id="aQ" x1="-1470.204" x2="-1470.204" y1="2523.036" y2="2511.376" gradientTransform="matrix(29.565 0 0 -5.686 43482.207 14484.024)" gradientUnits="userSpaceOnUse"><stop offset="0" stop-color="#0098FF"/><stop offset="1" stop-color="#F7E135"/></linearGradient><path fill="url(#aQ)" d="M.9 178.2h29.5v5.7H.9z"/><linearGradient id="aR" x1="-1470.204" x2="-1470.204" y1="2524.786" y2="2513.126" gradientTransform="matrix(29.565 0 0 -5.686 43482.207 14493.975)" gradientUnits="userSpaceOnUse"><stop offset="0" stop-color="#0098FF"/><stop offset="1" stop-color="#F7E135"/></linearGradient><path fill="url(#aR)" d="M.9 188.1h29.5v5.7H.9z"/></g><linearGradient id="aS" x1="-613.202" x2="-613.202" y1="3112.891" y2="3113.915" gradientTransform="matrix(85.188 0 0 -219.082 53419.55 682444.625)" gradientUnits="userSpaceOnUse"><stop offset="0" stop-color="#0098FF"/><stop offset="1" stop-color="#1E1E1E"/></linearGradient><path fill="url(#aS)" d="M1209 261.8v-11.6h-37.4v11.6h-32.1v207.4h85.1V261.8H1209z"/><g transform="translate(1203.435 101.96)"><linearGradient id="aT" x1="-1697.76" x2="-1697.76" y1="2763.365" y2="2782.262" gradientTransform="matrix(4.927 0 0 -11.561 8367.991 32312.754)" gradientUnits="userSpaceOnUse"><stop offset="0" stop-color="#0098FF"/><stop offset="1" stop-color="#F7E135"/></linearGradient><path fill="url(#aT)" d="M.7 148.3h4.9v11.6H.7z"/><linearGradient id="aU" x1="-1697.762" x2="-1697.762" y1="3009.342" y2="3010.459" gradientTransform="matrix(4.927 0 0 -195.771 8383.63 589507.5)" gradientUnits="userSpaceOnUse"><stop offset="0" stop-color="#0098FF"/><stop offset="1" stop-color="#F7E135"/></linearGradient><path fill="url(#aU)" d="M16.3 159.9v195.7l4.9-4.9V159.9h-4.9z"/></g><g transform="translate(1149.612 130.956)"><linearGradient id="aV" x1="-1757.803" x2="-1757.803" y1="2352.34" y2="2335.937" gradientTransform="matrix(50.506 0 0 -4.359 88805.5 10402.375)" gradientUnits="userSpaceOnUse"><stop offset="0" stop-color="#0098FF"/><stop offset="1" stop-color="#F7E135"/></linearGradient><path fill="url(#aV)" d="M.7 152.7h50.5v-4.4H.7v4.4z"/><linearGradient id="aW" x1="-1757.803" x2="-1757.803" y1="2339.76" y2="2322.991" gradientTransform="matrix(50.506 0 0 -4.264 88805.5 10125.218)" gradientUnits="userSpaceOnUse"><stop offset="0" stop-color="#0098FF"/><stop offset="1" stop-color="#F7E135"/></linearGradient><path fill="url(#aW)" d="M.7 160.1h50.5v-4.3H.7v4.3z"/><linearGradient id="aX" x1="-1757.803" x2="-1757.803" y1="2341.517" y2="2324.749" gradientTransform="matrix(50.506 0 0 -4.264 88805.5 10132.75)" gradientUnits="userSpaceOnUse"><stop offset="0" stop-color="#0098FF"/><stop offset="1" stop-color="#F7E135"/></linearGradient><path fill="url(#aX)" d="M.7 167.5h50.5v-4.3H.7v4.3z"/><linearGradient id="aY" x1="-1757.803" x2="-1757.803" y1="2343.273" y2="2326.505" gradientTransform="matrix(50.506 0 0 -4.264 88805.5 10140.235)" gradientUnits="userSpaceOnUse"><stop offset="0" stop-color="#0098FF"/><stop offset="1" stop-color="#F7E135"/></linearGradient><path fill="url(#aY)" d="M.7 175h50.5v-4.3H.7v4.3z"/><linearGradient id="aZ" x1="-1757.803" x2="-1757.803" y1="2345.025" y2="2328.257" gradientTransform="matrix(50.506 0 0 -4.264 88805.5 10147.676)" gradientUnits="userSpaceOnUse"><stop offset="0" stop-color="#0098FF"/><stop offset="1" stop-color="#F7E135"/></linearGradient><path fill="url(#aZ)" d="M.7 182.5h50.5v-4.3H.7v4.3z"/><linearGradient id="ba" x1="-1757.803" x2="-1757.803" y1="2346.784" y2="2330.016" gradientTransform="matrix(50.506 0 0 -4.264 88805.5 10155.208)" gradientUnits="userSpaceOnUse"><stop offset="0" stop-color="#0098FF"/><stop offset="1" stop-color="#F7E135"/></linearGradient><path fill="url(#ba)" d="M.7 190h50.5v-4.3H.7v4.3z"/><linearGradient id="bb" x1="-1757.803" x2="-1757.803" y1="2348.536" y2="2331.769" gradientTransform="matrix(50.506 0 0 -4.264 88805.5 10162.648)" gradientUnits="userSpaceOnUse"><stop offset="0" stop-color="#0098FF"/><stop offset="1" stop-color="#F7E135"/></linearGradient><path fill="url(#bb)" d="M.7 197.5h50.5v-4.3H.7v4.3z"/><linearGradient id="bc" x1="-1757.803" x2="-1757.803" y1="2350.295" y2="2333.527" gradientTransform="matrix(50.506 0 0 -4.264 88805.5 10170.18)" gradientUnits="userSpaceOnUse"><stop offset="0" stop-color="#0098FF"/><stop offset="1" stop-color="#F7E135"/></linearGradient><path fill="url(#bc)" d="M.7 204.9h50.5v-4.3H.7v4.3z"/><linearGradient id="bd" x1="-1757.803" x2="-1757.803" y1="2352.05" y2="2335.283" gradientTransform="matrix(50.506 0 0 -4.264 88805.5 10177.665)" gradientUnits="userSpaceOnUse"><stop offset="0" stop-color="#0098FF"/><stop offset="1" stop-color="#F7E135"/></linearGradient><path fill="url(#bd)" d="M.7 212.4h50.5v-4.3H.7v4.3z"/><linearGradient id="be" x1="-1757.803" x2="-1757.803" y1="2353.803" y2="2337.035" gradientTransform="matrix(50.506 0 0 -4.264 88805.5 10185.104)" gradientUnits="userSpaceOnUse"><stop offset="0" stop-color="#0098FF"/><stop offset="1" stop-color="#F7E135"/></linearGradient><path fill="url(#be)" d="M.7 219.9h50.5v-4.3H.7v4.3z"/></g><linearGradient id="bf" x1="-584.712" x2="-583.713" y1="2029.89" y2="2029.89" gradientTransform="matrix(17.151 0 0 -2.558 10068.905 5489.011)" gradientUnits="userSpaceOnUse"><stop offset="0" stop-color="#0098FF"/><stop offset="1" stop-color="#F7E135"/></linearGradient><path fill="url(#bf)" d="M40.5 295.3h17.1v2.6H40.5z"/><linearGradient id="bg" x1="-598.824" x2="-597.823" y1="2924.847" y2="2924.847" gradientTransform="matrix(28.048 0 0 -13.929 17442.098 40983.898)" gradientUnits="userSpaceOnUse"><stop offset="0" stop-color="#0098FF"/><stop offset="1" stop-color="#F7E135"/></linearGradient><path fill="url(#bg)" d="M660.3 244.8l-9-5.1-5 2.8 14 8.1 14-8.1v-5.8l-14 8.1z"/><linearGradient id="bh" x1="-576.648" x2="-575.647" y1="2924.847" y2="2924.847" gradientTransform="matrix(14.024 0 0 -13.929 8733.202 40989.68)" gradientUnits="userSpaceOnUse"><stop offset="0" stop-color="#0098FF"/><stop offset="1" stop-color="#F7E135"/></linearGradient><path fill="url(#bh)" d="M646.3 248.3l14 8.1v-5.8l-14-8.1v5.8z"/></g></svg>