<svg id="Group_534" data-name="Group 534" xmlns="http://www.w3.org/2000/svg" viewBox="0 0 97.608 37.199">
  <defs>
    <style>
      .cls-1 {
        fill: #ef3b24;
      }

      .cls-2 {
        fill: #F7E135;
      }

      .cls-3 {
        fill: #fcb918;
      }

      .cls-4 {
        fill: #fff;
      }
    </style>
  </defs>
  <path id="Path_42" data-name="Path 42" class="cls-1" d="M10.857,70.767,3.9,66.744,0,69.008l10.857,6.267,10.857-6.267V64.5Z" transform="translate(0 -51.46)"/>
  <path id="Path_43" data-name="Path 43" class="cls-1" d="M10.857,114.988,3.9,110.964,0,113.229,10.857,119.5l10.857-6.267V108.7Z" transform="translate(0 -86.724)"/>
  <path id="Path_44" data-name="Path 44" class="cls-2" d="M0,46.948l10.857,6.267V48.767L0,42.5Z" transform="translate(0 -33.908)"/>
  <path id="Path_45" data-name="Path 45" class="cls-3" d="M0,91.228l10.857,6.288V93.067L0,86.8Z" transform="translate(0 -69.252)"/>
  <path id="Path_46" data-name="Path 46" class="cls-3" d="M0,135.528l10.857,6.267v-4.428L0,131.1Z" transform="translate(0 -104.595)"/>
  <path id="Path_47" data-name="Path 47" class="cls-1" d="M14.758,0,0,8.592,10.857,14.86,25.615,6.267Z"/>
  <g id="Group_36" data-name="Group 36" transform="translate(32.994 5.398)">
    <path id="Path_48" data-name="Path 48" class="cls-4" d="M182.038,26.7,178.6,37.86h-2.608l-2.224-7.6-2.224,7.6h-2.608L165.5,26.7h2.588l2.224,8.431,2.406-8.431h2.1l2.406,8.431L179.45,26.7Z" transform="translate(-165.035 -26.7)"/>
    <path id="Path_49" data-name="Path 49" class="cls-4" d="M261.864,26.7v2.1h-5.479v2.386h4.994v2.082h-4.994v2.487h5.56v2.1H254V26.7Z" transform="translate(-235.643 -26.7)"/>
    <path id="Path_50" data-name="Path 50" class="cls-4" d="M307.672,26.7c2.386,0,3.861.91,3.861,2.83a2.413,2.413,0,0,1-1.7,2.446,2.752,2.752,0,0,1,2.143,2.77c0,2.527-2.446,3.134-4.387,3.134H302.8V26.7Zm0,6.348h-2.527v2.871h2.386c1.072,0,2.022-.222,2.022-1.435C309.573,33.291,308.643,33.048,307.672,33.048Zm-.222-4.387h-2.285v2.547h2.406c.91,0,1.557-.425,1.557-1.274C309.148,29.065,308.5,28.661,307.45,28.661Z" transform="translate(-274.577 -26.7)"/>
    <path id="Path_51" data-name="Path 51" class="cls-4" d="M376.407,32.341a3,3,0,0,1,.788,2.123,3.317,3.317,0,0,1-.505,1.8,3.487,3.487,0,0,1-1.557,1.314,6.061,6.061,0,0,1-2.568.485,9.061,9.061,0,0,1-2.325-.3,5.737,5.737,0,0,1-1.941-.89l1.011-1.981a4.829,4.829,0,0,0,1.476.748,5.542,5.542,0,0,0,1.718.263,2.663,2.663,0,0,0,1.537-.384,1.22,1.22,0,0,0,.566-1.051c0-.91-.687-1.375-2.082-1.375h-1.173v-1.7l2.3-2.608h-4.751V26.7h7.8v1.678l-2.527,2.871A3.809,3.809,0,0,1,376.407,32.341Z" transform="translate(-326.835 -26.7)"/>
    <path id="Path_52" data-name="Path 52" class="cls-4" d="M419.655,72.528a1.315,1.315,0,1,1,0-2.628,1.314,1.314,0,1,1,0,2.628Z" transform="translate(-366.726 -61.166)"/>
    <path id="Path_53" data-name="Path 53" class="cls-4" d="M163.2,112.46l4.973-11.16h1.072l4.953,11.16h-1.011l-1.314-2.992h-6.308l-1.334,2.992Zm2.709-3.9h5.56l-2.628-5.944c-.04-.121-.1-.243-.142-.344-.04.121-.1.222-.142.344Z" transform="translate(-163.2 -86.218)"/>
    <path id="Path_54" data-name="Path 54" class="cls-4" d="M226.1,100.4a7.652,7.652,0,0,1,3.3.728v.95a6.266,6.266,0,0,0-3.174-.788c-2.487,0-5.074,1.415-5.074,4.872,0,3.558,2.608,4.872,5.135,4.872a5.942,5.942,0,0,0,2.446-.505v-4.65h.95V111.2a8.161,8.161,0,0,1-3.457.748c-3.033,0-6.025-1.6-6.025-5.762A5.588,5.588,0,0,1,226.1,100.4Z" transform="translate(-208.676 -85.5)"/>
    <path id="Path_55" data-name="Path 55" class="cls-4" d="M287.22,101.3v.91H280.75v4.185h6v.91h-6v4.246h6.571v.91H279.8V101.3Z" transform="translate(-256.227 -86.218)"/>
    <path id="Path_56" data-name="Path 56" class="cls-4" d="M328.8,112.46V101.3h.869l7.319,9.542V101.3h.95v11.16h-.869L329.75,102.9v9.563Z" transform="translate(-295.32 -86.218)"/>
    <path id="Path_57" data-name="Path 57" class="cls-4" d="M391.3,100.4a6.763,6.763,0,0,1,3.134.748v.95a5.612,5.612,0,0,0-2.992-.809,4.768,4.768,0,0,0-4.994,4.973c-.02,3.215,2.608,4.751,5.034,4.751a5.677,5.677,0,0,0,3.053-.809v.95a6.887,6.887,0,0,1-3.235.768,5.564,5.564,0,0,1-5.8-5.641A5.65,5.65,0,0,1,391.3,100.4Z" transform="translate(-340.557 -85.5)"/>
    <path id="Path_58" data-name="Path 58" class="cls-4" d="M438.987,112.46v-4.347L434.6,101.3h1.051l3.821,5.944,3.821-5.944h1.051l-4.407,6.813v4.347Z" transform="translate(-379.731 -86.218)"/>
  </g>
</svg>
