<svg xmlns="http://www.w3.org/2000/svg" id="Layer_1" width="351.4" height="400.5"><style>.st0{fill:#ef3b24}.st1{opacity:.5;fill:none;stroke:#ef3b24;stroke-miterlimit:10;enable-background:new}.st2{fill:#fbb818}</style><circle id="Ellipse_499" cx="86.5" cy="397.4" r="3.1" class="st0"/><circle id="Ellipse_506" cx="4.5" cy="72.7" r="4.5" class="st0"/><circle id="Ellipse_507" cx="95.1" cy="3.8" r="3.8" class="st0"/><circle id="Ellipse_501" cx="54.5" cy="263.5" r="6.2" class="st0"/><circle id="Ellipse_500" cx="300.1" cy="347.4" r="3.5" class="st0"/><path id="Line_225" d="M139.1 82.3L344.4 63" class="st1"/><path id="Line_224" d="M4.5 72.7l310.8 158.1" class="st1"/><path id="Line_222" d="M136.2 158.4l89.5 85.6" class="st1"/><path id="Line_226" d="M95.1 3.8l40.6 78.5" class="st1"/><path id="Path_1575" d="M225.7 282.8L87.5 396.4 348.4 63" class="st1"/><path id="Line_223" d="M54.5 263.5l171.2-93" class="st1"/><path id="Line_220" d="M139.1 82.3L87.5 396.4" class="st1"/><path id="Path_1576" d="M315.3 230.8l-15.2 116.6L161.8 246 54.5 263.5l81.2-181.2" class="st1"/><path id="Line_221" d="M227.4 135.3l72.7 212.1" class="st1"/><circle id="Ellipse_505" cx="260.9" cy="113.6" r="5.9" class="st2"/><circle id="Ellipse_502" cx="162.8" cy="246" r="4.3" class="st2"/><path id="Path_1578" fill="#4e0d23" d="M225.7 89.5L184.9 246l107.8 29-67-185.5z"/><path id="Path_1579" fill="#400e21" d="M225.7 89.5l77.9 90.8-11 94.7-66.9-185.5z"/><path id="Path_1577" d="M227.4 135.3l124-72.2-93.4-54-124 72.2v38.8l30.6 17.7-30.6 17.6v38.8l30.6 17.6-30.6 17.7v38.9l93.4 54v-38.8l89.1-51.4.9-.5v-41.4l-89.9 52v-32.7l89.1-51.4.9-.5v-41.4l-89.9 52-.2-33zM258 13.1L344.4 63l-118.8 69.2-49.4-28.6-37-21.4L258 13.1zm-120.5 105V85.4l35 20.3 51.4 29.7V168l-55.8-32.2-30.6-17.7zm0 74.1v-32.7l86.4 49.9v32.7l-55.8-32.2-30.6-17.7zm86.4 124.1l-86.4-49.9v-32.7l86.4 49.9v32.7zm89.9-86.7l-88.2 50.9-86.4-49.9 28.9-16.7 57.5 33.3 88.2-50.9v33.3zm0-74.2l-88.2 50.9-86.4-49.9 28.9-16.7 57.5 33.3 88.2-50.9v33.3z" class="st2"/></svg>