<svg xmlns="http://www.w3.org/2000/svg" id="Layer_1" width="222.7" height="212.2"><style>.st0{fill:#0098FF}.st1{opacity:.5}.st2{fill:#0098FF}</style><g id="Group_738" transform="translate(49 110.777)"><g id="Ellipse_499_1_" transform="translate(29.391 208.854)"><circle id="Ellipse_563" cx="-47.3" cy="-109.1" r="1.7" class="st0"/></g><g id="Ellipse_506_1_" transform="translate(0 40.423)"><circle id="Ellipse_564" cx="-46.6" cy="-108.3" r="2.4" class="st0"/></g><g id="Ellipse_507_1_" transform="translate(35.96)"><circle id="Ellipse_565" cx="-47" cy="-108.8" r="2" class="st0"/></g><g id="Ellipse_501_1_" transform="translate(215.928 58.446)"><circle id="Ellipse_566" cx="-45.6" cy="-107.4" r="3.4" class="st0"/></g><g id="Ellipse_500_1_" transform="translate(144.598 181.737)"><circle id="Ellipse_567" cx="-47.1" cy="-108.9" r="1.9" class="st0"/></g><g id="Line_225_1_" class="st1" transform="translate(59.5 29.697)"><path id="Rectangle_337" d="M-49.2-105.6H62.3v.5H-49.2z" class="st0" transform="rotate(-5.334 6.508 -105.377) scale(1.00003)"/></g><g id="Line_224_1_" class="st1" transform="translate(2.358 42.613)"><path id="Path_1882" d="M-49-110.3l.3-.5L103.4-33l-.3.5L-49-110.3z" class="st0"/></g><g id="Line_222_1_" class="st1" transform="translate(57.79 81.313)"><path id="Rectangle_338" d="M-24.9-120.9h.5V-54h-.5z" class="st0" transform="rotate(-46.284 -24.66 -87.486)"/></g><g id="Line_226_1_" class="st1" transform="translate(37.729 1.937)"><path id="Path_1883" d="M-49-110.5l.5-.3 19.6 38.2-.4.3-19.7-38.2z" class="st0"/></g><g id="Path_1575_1_" class="st1" transform="translate(29.896 29.728)"><path id="Path_1884" d="M-49 71.3L93.4-110.8l.4.4L-45.5 67.8 27.2 8l.3.4L-49 71.3z" class="st0"/></g><g id="Line_223_1_" class="st1" transform="translate(106.196 61.646)"><path id="Path_1885" d="M64-110.8L-49-84.7l.3.5 113-26.2-.3-.4z" class="st0"/></g><g id="Line_220_1_" class="st1" transform="translate(31.342 40.319)"><path id="Rectangle_339" d="M-120.8-26.2h172v.5h-172z" class="st0" transform="rotate(-80.677 -34.822 -25.904)"/></g><g id="Path_1576_1_" class="st1" transform="translate(57.351 40.255)"><path id="Path_1886" d="M40.4 33l-75-55 147.2-66.9.2-.4L-49-110.8l.6.2 161.8 21.1-147.9 67 .1.1 74.3 54.5L48-30.5l.6.1L40.4 33z" class="st0"/></g><g id="Line_221_1_" class="st1" transform="translate(106.947 68.882)"><path id="Rectangle_340" d="M-29.4-114h.5V7.1h-.5z" class="st0" transform="rotate(-18.933 -29.116 -53.422)"/></g><g id="Ellipse_505_1_" transform="translate(122.112 54.066)"><circle id="Ellipse_568" cx="-45.8" cy="-107.6" r="3.2" class="st2"/></g><g id="Ellipse_502_1_" transform="translate(69.899 126.407)"><circle id="Ellipse_569" cx="-46.6" cy="-108.4" r="2.4" class="st2"/></g><g id="Path_1578_1_" transform="translate(84.215 44.213)"><path id="Path_1887" fill="#F7E135" d="M-26.9-110.8L-49-26.2 9.2-10.6l-36.1-100.2z"/></g><g id="Path_1579_1_" transform="translate(106.28 44.213)"><path id="Path_1888" fill="#F7E135" d="M-49-110.8l42.1 49-6 51.1L-49-110.8z"/></g><g id="Path_1577_1_" transform="translate(56.761 .842)"><path id="Path_1889" d="M1.4-42.6l67-39L18-110.8l-67 39v21l16.5 9.5-16.5 9.5v21l16.5 9.5L-49 8.3v21.1L1.4 58.5V37.4L49.6 9.7l.5-.3V-13L1.5 15.1V-2.6l48.2-27.8.5-.3V-53L1.6-24.8l-.2-17.8zM18-108.7l46.7 26.9L.4-44.3l-26.7-15.4-20-11.5L18-108.7zm-65.1 56.8v-17.7l18.9 10.9L-.5-42.6V-25l-30.1-17.4-16.5-9.5zm0 40v-17.7l46.6 27V15L-30.6-2.4l-16.5-9.5zm46.6 67l-46.7-26.9V10.5L-.5 37.4v17.7zM48.1 8.3L.4 35.8l-46.6-27 15.6-9 31.1 18L48.1-9.6V8.3zm0-40.1L.4-4.3l-46.7-26.9 15.6-9 31.1 18 47.7-27.5v17.9z" class="st2"/></g></g></svg>