<svg width="160" height="53" viewBox="0 0 160 53" fill="none" xmlns="http://www.w3.org/2000/svg">
<path d="M62.2793 32.2045H65.4537V32.998C65.4537 34.0562 65.9826 34.585 67.0412 34.585C68.0998 34.585 68.6288 34.0562 68.6288 32.998V31.7282C68.6288 30.247 67.5702 28.7664 65.4544 27.2852C63.3379 25.8039 62.28 23.9003 62.28 21.5723V20.3033C62.28 17.13 63.8675 15.543 67.0419 15.543C70.2163 15.543 71.8038 17.13 71.8038 20.3033V21.0968H68.6295V20.3033C68.6295 19.2458 68.1005 18.7163 67.0419 18.7163C65.9833 18.7163 65.4544 19.2451 65.4544 20.3033V21.5723C65.4544 23.0536 66.5123 24.5349 68.6288 26.0154C70.7452 27.4967 71.8031 29.4009 71.8031 31.7275V32.9973C71.8031 36.1706 70.2156 37.7576 67.0412 37.7576C63.8668 37.7576 62.2793 36.1706 62.2793 32.9973V32.2038V32.2045Z" fill="white"/>
<path d="M76.6416 15.5437H84.5779V18.717H79.816V25.0644H83.7841V28.2377H79.816V34.585H84.5779V37.7583H76.6416V15.5437Z" fill="white"/>
<path d="M89.4165 37.7583V15.5437H94.1784C97.3528 15.5437 98.9403 17.1307 98.9403 20.304V32.998C98.9403 36.1713 97.3528 37.7583 94.1784 37.7583H89.4165ZM92.5909 18.717V34.585H94.1784C95.2363 34.585 95.766 34.0562 95.766 32.998V20.304C95.766 19.2465 95.237 18.717 94.1784 18.717H92.5909Z" fill="white"/>
<path d="M103.779 37.7583V15.5437H108.541C111.715 15.5437 113.303 17.1307 113.303 20.304V32.998C113.303 36.1713 111.715 37.7583 108.541 37.7583H103.779ZM106.953 18.717V34.585H108.541C109.599 34.585 110.128 34.0562 110.128 32.998V20.304C110.128 19.2465 109.599 18.717 108.541 18.717H106.953Z" fill="white"/>
<path d="M127.665 19.9866V33.3158C127.665 36.4892 126.077 38.0762 122.903 38.0762C119.729 38.0762 118.141 36.4892 118.141 33.3158V19.9866C118.141 16.8133 119.729 15.2263 122.903 15.2263C126.077 15.2263 127.665 16.8133 127.665 19.9866ZM122.903 18.3996C121.844 18.3996 121.315 18.9284 121.315 19.9866V33.3158C121.315 34.3734 121.844 34.9028 122.903 34.9028C123.962 34.9028 124.491 34.3741 124.491 33.3158V19.9866C124.491 18.9291 123.962 18.3996 122.903 18.3996Z" fill="white"/>
<path d="M132.503 37.7583V15.5437H135.677L139.645 28.2377V15.5437H142.82V37.759H139.645L135.677 25.0651V37.759H132.503V37.7583Z" fill="white"/>
<path d="M146.849 37.7583L149.389 15.543H154.785L157.325 37.7583H154.151L153.516 32.998H150.659L150.024 37.7583H146.85H146.849ZM152.087 18.8753L150.976 29.824H153.199L152.087 18.8753Z" fill="white"/>
<path d="M23.2539 13.5134L19.4483 10.1656C19.2837 10.0207 19.0546 9.97375 18.8458 10.0431L17.7375 10.4094C17.5623 10.4675 17.4306 10.6118 17.3886 10.7911C17.308 11.1391 17.1959 11.7429 17.1279 12.1224C17.0894 12.3361 17.1665 12.5532 17.3297 12.696L19.6921 14.7628V14.767L21.8934 16.7441C22.0888 16.9199 22.3144 17.0516 22.5554 17.1356C22.5869 17.1468 22.6192 17.1531 22.6507 17.1622C22.7004 17.1769 22.7495 17.193 22.7999 17.2042C22.8174 17.2077 22.8357 17.2084 22.8539 17.2119C22.8693 17.2161 22.884 17.221 22.8994 17.2245C22.8994 17.2245 22.9008 17.2245 22.9015 17.2245C22.9036 17.2245 22.9057 17.2259 22.9085 17.2266C22.9758 17.24 23.0437 17.247 23.1117 17.2533C23.1264 17.2547 23.1411 17.2582 23.1551 17.2589C23.2252 17.2638 23.2959 17.2624 23.3667 17.2596C23.3821 17.2596 23.3968 17.2603 23.4122 17.2596C23.4837 17.2554 23.5552 17.2449 23.6266 17.2323C23.6406 17.2295 23.6554 17.2295 23.6694 17.2266C23.7548 17.2098 23.8396 17.1874 23.923 17.1587L25.5098 16.618L26.9762 16.1187L30.0412 15.1186C30.1253 15.0913 30.2066 15.0583 30.2851 15.0205C30.2963 15.0149 30.3068 15.0072 30.318 15.0016C30.3838 14.9687 30.449 14.933 30.5106 14.8931C30.5211 14.8861 30.5303 14.8777 30.5408 14.8699C30.601 14.8286 30.6606 14.7852 30.7152 14.7376C30.7257 14.7285 30.7348 14.7173 30.7453 14.7082C30.7965 14.6619 30.8469 14.615 30.8932 14.5639C30.8946 14.5618 30.896 14.5604 30.8974 14.5583C30.8974 14.5583 30.8988 14.5576 30.8988 14.5569C30.9093 14.5457 30.9177 14.5331 30.9275 14.5205C30.9387 14.51 30.9499 14.4995 30.9604 14.4883C30.9604 14.4883 30.9611 14.4869 30.9618 14.4862C30.9632 14.4848 30.9653 14.4834 30.9667 14.4812C31.0123 14.4294 31.0529 14.3734 31.0928 14.3174C31.1005 14.3062 31.1103 14.2957 31.1188 14.2837C31.1594 14.2235 31.1951 14.1591 31.2294 14.0947C31.2358 14.0834 31.2428 14.0729 31.2484 14.0617C31.2806 13.9959 31.3079 13.9273 31.3331 13.8579C31.3373 13.846 31.3436 13.8348 31.3478 13.8229C31.3759 13.741 31.399 13.6562 31.4158 13.5694L31.8411 11.4193L32.4036 8.71731C32.4548 8.47288 32.6313 8.27398 32.8681 8.19554L36.851 6.86697C37.0885 6.78782 37.3505 6.84105 37.5376 7.00704L40.6797 9.79166C40.8661 9.95694 40.9509 10.2091 40.9018 10.4535L39.9042 15.4218C39.8607 15.6368 39.935 15.8589 40.0989 16.0045L40.9705 16.7805C41.1078 16.9031 41.2991 16.9451 41.4756 16.8912C41.8175 16.7875 42.3962 16.5816 42.7591 16.4514C42.963 16.3778 43.1136 16.2027 43.1556 15.9898L43.7644 12.911L43.7686 12.9096L44.3803 10.0151C44.4349 9.75734 44.4363 9.49611 44.3887 9.24608C44.3824 9.21316 44.3718 9.18235 44.3641 9.15013C44.3522 9.0997 44.3417 9.04928 44.3256 9.00025C44.32 8.98274 44.3116 8.96664 44.3053 8.94983C44.3018 8.93442 44.2983 8.91901 44.2934 8.9043C44.2934 8.9036 44.2934 8.9029 44.2927 8.9022C44.292 8.9001 44.292 8.898 44.2906 8.8952C44.2689 8.83077 44.2408 8.76773 44.2121 8.7061C44.2058 8.6928 44.2016 8.67879 44.1953 8.66548C44.1645 8.60245 44.128 8.54152 44.0902 8.48199C44.0818 8.46938 44.0755 8.45538 44.0671 8.44277C44.0272 8.38324 43.9823 8.32651 43.9361 8.27118C43.927 8.25998 43.9193 8.24807 43.9102 8.23686C43.8534 8.17173 43.7911 8.1094 43.7252 8.05127L42.4634 6.94751L41.2977 5.92779L38.8988 3.77419C38.833 3.71536 38.7636 3.66073 38.6922 3.61241C38.6816 3.6054 38.6697 3.5998 38.6592 3.5928C38.5976 3.55217 38.5345 3.51366 38.4687 3.48074C38.4575 3.47514 38.4448 3.47093 38.4336 3.46603C38.3678 3.43451 38.3005 3.4051 38.2319 3.38059C38.2186 3.37568 38.2045 3.37358 38.1912 3.36938C38.1254 3.34837 38.0595 3.32806 37.9923 3.31335C37.9902 3.31335 37.9881 3.31335 37.9853 3.31265C37.9853 3.31265 37.9839 3.31265 37.9832 3.31265C37.9684 3.30915 37.953 3.30775 37.9376 3.30635C37.9229 3.30215 37.9082 3.29725 37.8928 3.29444C37.8921 3.29444 37.8914 3.29444 37.8907 3.29444C37.8886 3.29444 37.8865 3.29304 37.8837 3.29304C37.8164 3.27974 37.7478 3.27203 37.6791 3.26643C37.6651 3.26503 37.6511 3.26153 37.6371 3.26083C37.5642 3.25592 37.4913 3.25662 37.4185 3.26013C37.4059 3.26013 37.3933 3.25943 37.3806 3.26013C37.3071 3.26503 37.2342 3.27553 37.1614 3.28814C37.1487 3.29024 37.1361 3.29094 37.1235 3.29304C37.0381 3.30985 36.954 3.33226 36.8699 3.36098L33.8181 4.40031L32.3455 4.88075L30.7523 5.40042C30.6683 5.42773 30.587 5.46065 30.5085 5.49847C30.4952 5.50477 30.484 5.51317 30.4707 5.51948C30.4063 5.55239 30.3425 5.58671 30.2829 5.62593C30.2703 5.63434 30.2591 5.64484 30.2465 5.65325C30.1884 5.69317 30.1309 5.73519 30.0777 5.78071C30.0665 5.79052 30.0574 5.80172 30.0461 5.81153C29.9957 5.85705 29.9453 5.90397 29.8997 5.9544C29.8997 5.9544 29.8969 5.9586 29.8955 5.96C29.8955 5.96 29.8941 5.9607 29.8941 5.9614C29.8836 5.97331 29.8745 5.98592 29.8647 5.99852C29.8528 6.01183 29.8388 6.02304 29.8269 6.03704C29.7932 6.07626 29.7638 6.11828 29.7323 6.16031C29.7127 6.18692 29.6902 6.21143 29.672 6.23874C29.5305 6.45025 29.4289 6.69118 29.3778 6.94891L29.2328 7.68428L29.2286 7.68778L28.3878 11.8003C28.3374 12.0454 28.1602 12.2457 27.9227 12.3249L23.9391 13.6527C23.7023 13.7319 23.4417 13.6786 23.2546 13.5141L23.2539 13.5134Z" fill="url(#paint0_linear_2161_364)"/>
<path d="M13.8992 23.9431L9.0959 25.5637C8.88782 25.6338 8.73299 25.8089 8.68815 26.0239L8.45135 27.1668C8.41422 27.3475 8.47307 27.5338 8.60759 27.6592C8.86821 27.9029 9.3355 28.3014 9.63045 28.5501C9.79649 28.6901 10.0228 28.7321 10.2281 28.6628L13.1993 27.6508L13.2028 27.6536L16.0163 26.7354C16.2665 26.6542 16.4934 26.5246 16.6868 26.3579C16.712 26.3362 16.7337 26.3117 16.7576 26.2886C16.7954 26.2529 16.8339 26.2186 16.8683 26.18C16.8802 26.1667 16.89 26.1513 16.9019 26.1373C16.9131 26.1261 16.925 26.1163 16.9355 26.1037C16.9355 26.1037 16.9362 26.1023 16.9369 26.1023C16.9383 26.1009 16.9404 26.0988 16.9418 26.0974C16.9867 26.0463 17.0273 25.9909 17.0665 25.9349C17.0749 25.923 17.0854 25.9118 17.0932 25.8999C17.1324 25.8418 17.1667 25.7794 17.1996 25.7171C17.2066 25.7038 17.2158 25.6912 17.2228 25.6779C17.2543 25.6142 17.2809 25.5469 17.3061 25.479C17.311 25.4657 17.318 25.4531 17.3229 25.4391C17.351 25.3571 17.3741 25.2724 17.3909 25.1855L17.716 23.5418L18.0165 22.0227L18.6828 18.869C18.701 18.7829 18.7129 18.696 18.7199 18.6092C18.7206 18.5966 18.7199 18.584 18.7199 18.5707C18.7241 18.4964 18.7262 18.4229 18.722 18.3493C18.7213 18.3367 18.7185 18.3241 18.7171 18.3115C18.7115 18.2387 18.7038 18.1659 18.6898 18.0944C18.687 18.0804 18.6821 18.0671 18.6793 18.0538C18.6646 17.9866 18.6492 17.9193 18.6281 17.8535C18.6274 17.8514 18.6267 17.8493 18.6253 17.8472C18.6253 17.8465 18.6253 17.8458 18.6253 17.8451C18.6204 17.8304 18.6141 17.8164 18.6078 17.8024C18.6043 17.7877 18.6008 17.7723 18.5959 17.7575C18.5959 17.7575 18.5959 17.7561 18.5952 17.7554C18.5945 17.7533 18.5945 17.7512 18.5931 17.7491C18.5707 17.684 18.5427 17.621 18.514 17.5579C18.5083 17.5453 18.5041 17.532 18.4978 17.5194C18.4656 17.4536 18.4285 17.3913 18.3892 17.3296C18.3822 17.3191 18.3773 17.3072 18.3703 17.2967C18.3297 17.2358 18.2842 17.1776 18.2365 17.1209C18.2281 17.1111 18.2218 17.1006 18.2134 17.0908C18.1559 17.025 18.0943 16.9633 18.0277 16.9052L16.3778 15.4618L14.3181 13.624C14.1318 13.4581 14.0484 13.2052 14.0981 12.9608L14.9388 8.8483C14.9893 8.60318 15.1665 8.40288 15.404 8.32374L19.3876 6.99586C19.6244 6.91672 19.885 6.96995 20.0721 7.13453L23.8777 10.4822C24.0423 10.6272 24.2714 10.6741 24.4802 10.6048L25.5885 10.2385C25.7637 10.1804 25.8954 10.0361 25.9374 9.85682C26.018 9.50874 26.1294 8.90573 26.198 8.52544C26.2366 8.31183 26.1595 8.09472 25.997 7.95185L23.6346 5.88509V5.88089L21.4333 3.90448C21.2372 3.72869 21.0123 3.59703 20.7713 3.51298C20.7397 3.50178 20.7075 3.49547 20.676 3.48637C20.6262 3.47166 20.5772 3.45555 20.5268 3.44435C20.5092 3.44085 20.491 3.43945 20.4735 3.43664C20.4581 3.43244 20.4434 3.42754 20.428 3.42404C20.4273 3.42404 20.4266 3.42404 20.4259 3.42404C20.4238 3.42404 20.4217 3.42264 20.4189 3.42194C20.3523 3.40863 20.2836 3.40163 20.2157 3.39532C20.201 3.39392 20.1863 3.39042 20.1723 3.38972C20.1022 3.38482 20.0314 3.38622 19.9607 3.38902C19.9453 3.38902 19.9298 3.38832 19.9151 3.38902C19.8437 3.39322 19.7722 3.40443 19.7008 3.41633C19.6867 3.41843 19.672 3.41913 19.658 3.42194C19.5725 3.43874 19.4878 3.46116 19.4044 3.48987L17.8176 4.03055L16.3512 4.5299L13.2861 5.53001C13.2021 5.55733 13.1208 5.59024 13.0423 5.62806C13.0311 5.63366 13.0206 5.64067 13.0087 5.64697C12.9428 5.68059 12.8777 5.71561 12.8167 5.75553C12.8062 5.76253 12.7964 5.77093 12.7866 5.77864C12.7264 5.81996 12.6668 5.86338 12.6122 5.91101C12.6017 5.92011 12.5926 5.93132 12.582 5.94042C12.5309 5.98664 12.4805 6.03357 12.4342 6.08469C12.4328 6.08609 12.4314 6.0882 12.43 6.0903C12.43 6.0903 12.4293 6.091 12.4286 6.0917C12.4181 6.1029 12.4097 6.11551 12.3999 6.12812C12.3887 6.13862 12.3775 6.14913 12.367 6.16033C12.367 6.16103 12.3663 6.16173 12.3656 6.16243C12.3642 6.16383 12.3621 6.16593 12.3607 6.16734C12.3151 6.21916 12.2745 6.27519 12.2353 6.33122C12.2268 6.34313 12.2177 6.35293 12.2093 6.36484C12.1687 6.42507 12.133 6.4888 12.0993 6.55393C12.093 6.56514 12.086 6.57564 12.0804 6.58685C12.0475 6.65268 12.0209 6.72132 11.9949 6.79065C11.9907 6.80256 11.9844 6.81377 11.9802 6.82637C11.9522 6.90831 11.9291 6.99306 11.9123 7.0799L11.2866 10.242L10.9665 11.7576L10.6204 13.3971C10.6022 13.4833 10.5903 13.5701 10.5833 13.657C10.5826 13.6717 10.5833 13.6857 10.5833 13.7004C10.5798 13.7725 10.5776 13.8447 10.5819 13.9161C10.5826 13.9315 10.5861 13.9462 10.5875 13.9616C10.5931 14.0323 10.6001 14.1024 10.6134 14.1717C10.6162 14.1864 10.6211 14.1997 10.6246 14.2144C10.6386 14.281 10.654 14.3475 10.675 14.4126C10.675 14.4126 10.6771 14.4168 10.6778 14.4189C10.6778 14.4189 10.6778 14.4203 10.6778 14.421C10.6827 14.4358 10.6897 14.4505 10.6953 14.4652C10.701 14.482 10.7038 14.5002 10.7094 14.517C10.7262 14.566 10.7486 14.6129 10.7689 14.6606C10.7822 14.6907 10.792 14.7222 10.8067 14.7523C10.9195 14.9806 11.0772 15.1886 11.2754 15.3623L11.8394 15.8554V15.8603L14.983 18.6442C15.17 18.8102 15.2548 19.0637 15.2051 19.3088L14.3636 23.4213C14.3139 23.6658 14.1374 23.8647 13.9013 23.9445L13.8992 23.9431Z" fill="url(#paint1_linear_2161_364)"/>
<path d="M18.2566 37.257L17.259 42.2253C17.2156 42.4403 17.2898 42.6623 17.4538 42.808L18.3253 43.584C18.4626 43.7065 18.6539 43.7486 18.8304 43.6953C19.1723 43.5917 19.751 43.3865 20.1139 43.2555C20.3178 43.182 20.4684 43.0069 20.5104 42.794L21.1193 39.7152L21.1235 39.7138L21.7351 36.8192C21.7897 36.5615 21.7911 36.301 21.7435 36.0502C21.7379 36.0173 21.7267 35.9865 21.719 35.9543C21.707 35.9039 21.6965 35.8534 21.6804 35.8044C21.6748 35.7869 21.6664 35.7708 21.6601 35.754C21.6566 35.7386 21.6531 35.7232 21.6482 35.7085C21.6482 35.7078 21.6482 35.7071 21.6475 35.7064C21.6468 35.7043 21.6468 35.7015 21.6454 35.6994C21.623 35.6349 21.5957 35.5719 21.5669 35.5103C21.5606 35.497 21.5564 35.4829 21.5501 35.4696C21.5193 35.4066 21.4829 35.3457 21.445 35.2861C21.4373 35.2735 21.431 35.2595 21.4226 35.2469C21.3834 35.1874 21.3378 35.1307 21.2916 35.0753C21.2825 35.0641 21.2748 35.0522 21.2657 35.041C21.2082 34.9759 21.1466 34.9136 21.08 34.8554L19.8183 33.7517L18.6525 32.7319L16.2536 30.5783C16.1878 30.5195 16.1191 30.4656 16.047 30.4166C16.0365 30.4096 16.0245 30.404 16.014 30.397C15.9524 30.3563 15.8893 30.3178 15.8235 30.2849C15.8123 30.2793 15.7997 30.2758 15.7884 30.2702C15.7226 30.2387 15.6553 30.2093 15.5867 30.1847C15.5734 30.1805 15.5594 30.1777 15.546 30.1735C15.4802 30.1525 15.4143 30.1322 15.3471 30.1182C15.345 30.1182 15.3422 30.1182 15.3401 30.1175C15.3394 30.1175 15.3387 30.1175 15.338 30.1175C15.3226 30.1147 15.3078 30.1126 15.2924 30.1112C15.2777 30.107 15.263 30.1021 15.2476 30.0993C15.2469 30.0993 15.2462 30.0993 15.2455 30.0993C15.2434 30.0993 15.2413 30.0979 15.2392 30.0979C15.1712 30.0846 15.1026 30.0769 15.0339 30.0713C15.0199 30.0699 15.0066 30.0664 14.9919 30.0657C14.919 30.0608 14.8462 30.0615 14.7726 30.065C14.76 30.065 14.7474 30.0643 14.7341 30.065C14.6612 30.0699 14.5876 30.0804 14.5148 30.093C14.5022 30.0951 14.4896 30.0958 14.4769 30.0979C14.3915 30.1147 14.3067 30.1371 14.2233 30.1658L12.1482 30.8725L9.52586 31.7367C9.28906 31.8145 9.02844 31.7612 8.84138 31.5953L5.69923 28.8113C5.51217 28.6454 5.4274 28.3918 5.47714 28.1467L6.31855 24.0342C6.36829 23.7898 6.54484 23.5902 6.78094 23.511L11.5835 21.8904C11.7916 21.8204 11.9464 21.6453 11.9912 21.4303L12.228 20.2873C12.2652 20.1073 12.2063 19.9203 12.0718 19.7949C11.8112 19.5512 11.3439 19.1527 11.0489 18.9041C10.8836 18.764 10.6566 18.722 10.4513 18.7913L7.48013 19.8034L7.47663 19.8006L4.66305 20.7187C4.41294 20.8 4.18595 20.9295 3.99259 21.0955C3.96737 21.1172 3.94565 21.1417 3.92183 21.1648C3.8847 21.2006 3.84546 21.2349 3.81113 21.2734C3.79922 21.2867 3.78942 21.3021 3.77751 21.3161C3.7663 21.3266 3.75439 21.3371 3.74388 21.349C3.74388 21.349 3.74318 21.3504 3.74248 21.3504C3.74108 21.3525 3.73897 21.3532 3.73757 21.3553C3.69274 21.4065 3.6521 21.4618 3.61287 21.5178C3.60446 21.5297 3.59395 21.5409 3.58554 21.5528C3.54631 21.611 3.51198 21.6733 3.47905 21.7356C3.47205 21.7489 3.46294 21.7616 3.45664 21.7756C3.42511 21.84 3.39849 21.9072 3.37326 21.9745C3.36836 21.9878 3.36136 22.0004 3.35645 22.0144C3.32843 22.0963 3.30531 22.1811 3.28849 22.2679L2.96342 23.9116L2.66286 25.4307L1.9966 28.5844C1.97839 28.6713 1.96578 28.7581 1.95947 28.8443C1.95877 28.8569 1.95947 28.8695 1.95947 28.8828C1.95527 28.9563 1.95317 29.0306 1.95737 29.1034C1.95807 29.116 1.96087 29.1286 1.96227 29.1412C1.96788 29.2141 1.97558 29.2869 1.9896 29.3583C1.9924 29.3723 1.9973 29.3856 2.00011 29.3989C2.01482 29.4662 2.03023 29.5334 2.05125 29.5992C2.05125 29.6013 2.05265 29.6035 2.05405 29.6056C2.05405 29.6056 2.05405 29.607 2.05405 29.6077C2.05895 29.6224 2.06526 29.6364 2.07157 29.6504C2.07507 29.6651 2.07857 29.6805 2.08348 29.6952C2.08348 29.6959 2.08418 29.6966 2.08418 29.6973C2.08418 29.6994 2.08558 29.7015 2.08628 29.7036C2.108 29.7687 2.13602 29.8318 2.16545 29.8941C2.17175 29.9067 2.17525 29.9207 2.18156 29.9333C2.21379 29.9985 2.25092 30.0615 2.29015 30.1231C2.29716 30.1343 2.30206 30.1455 2.30907 30.156C2.3497 30.217 2.39524 30.2751 2.44288 30.3318C2.45129 30.3416 2.45759 30.3528 2.466 30.3619C2.52345 30.4271 2.5851 30.4894 2.65166 30.5475L5.07851 32.6696L6.23098 33.7047L7.47803 34.8239C7.54389 34.8827 7.61255 34.9367 7.68471 34.9857C7.69662 34.9941 7.70993 34.9997 7.72184 35.0074C7.78279 35.0466 7.84374 35.0844 7.9082 35.1167C7.92151 35.1237 7.93622 35.1279 7.95023 35.1342C8.01398 35.1643 8.07914 35.1937 8.14499 35.2168C8.15901 35.2217 8.17372 35.2238 8.18773 35.2287C8.25289 35.2497 8.31804 35.2693 8.3846 35.284C8.3846 35.284 8.3895 35.284 8.3916 35.2847C8.3923 35.2847 8.393 35.2847 8.3937 35.2847C8.40912 35.2882 8.42453 35.2889 8.44064 35.291C8.45816 35.2953 8.47497 35.3016 8.49249 35.3051C8.54293 35.3149 8.59477 35.3191 8.64662 35.3254C8.67955 35.3296 8.71177 35.3359 8.7447 35.338C8.99902 35.3548 9.25823 35.3219 9.50694 35.2371L10.2166 34.9955L10.2215 34.9976L14.2044 33.669C14.4419 33.5899 14.7039 33.6431 14.891 33.8091L18.0331 36.5937C18.2195 36.759 18.3043 37.0111 18.2552 37.2556L18.2566 37.257Z" fill="url(#paint2_linear_2161_364)"/>
<path d="M31.9693 40.1416L35.7749 43.4893C35.9395 43.6343 36.1686 43.6812 36.3774 43.6118L37.4857 43.2456C37.6609 43.1874 37.7926 43.0432 37.8346 42.8639C37.9152 42.5158 38.0273 41.9121 38.0953 41.5325C38.1338 41.3189 38.0567 41.1018 37.8935 40.9589L35.5311 38.8921V38.8879L33.3298 36.9108C33.1344 36.735 32.9088 36.6034 32.6678 36.5193C32.6363 36.5081 32.604 36.5018 32.5725 36.4927C32.5228 36.478 32.4737 36.4619 32.4233 36.4507C32.4058 36.4472 32.3875 36.4465 32.3693 36.443C32.3539 36.4388 32.3392 36.4339 32.3238 36.4304C32.3238 36.4304 32.3224 36.4304 32.3217 36.4304C32.3196 36.4304 32.3175 36.429 32.3147 36.4283C32.2474 36.415 32.1795 36.408 32.1115 36.4017C32.0968 36.4003 32.0821 36.3968 32.0681 36.3961C31.998 36.3912 31.9272 36.3926 31.8565 36.3954C31.8411 36.3954 31.8264 36.3947 31.811 36.3954C31.7395 36.3996 31.668 36.4101 31.5966 36.4227C31.5826 36.4255 31.5678 36.4255 31.5538 36.4283C31.4684 36.4451 31.3836 36.4675 31.3002 36.4962L29.7134 37.0369L28.247 37.5363L25.182 38.5364C25.0979 38.5637 25.0166 38.5966 24.9381 38.6344C24.9269 38.64 24.9164 38.6477 24.9052 38.6533C24.8394 38.6862 24.7742 38.722 24.7126 38.7619C24.702 38.7689 24.6929 38.7773 24.6824 38.785C24.6222 38.8263 24.5626 38.8697 24.508 38.9174C24.4975 38.9265 24.4884 38.9377 24.4779 38.9468C24.4267 38.993 24.3763 39.0399 24.33 39.091C24.3286 39.0931 24.3272 39.0945 24.3258 39.0966C24.3258 39.0966 24.3244 39.0973 24.3244 39.098C24.3139 39.1093 24.3055 39.1219 24.2957 39.1345C24.2845 39.145 24.2733 39.1555 24.2628 39.1667C24.2628 39.1667 24.2621 39.1681 24.2614 39.1688C24.26 39.1702 24.2579 39.1716 24.2565 39.1737C24.2109 39.2255 24.1703 39.2815 24.1304 39.3376C24.1227 39.3488 24.1129 39.3593 24.1044 39.3712C24.0638 39.4314 24.0281 39.4958 23.9937 39.5603C23.9874 39.5715 23.9804 39.582 23.9748 39.5932C23.9426 39.659 23.9153 39.7277 23.8901 39.797C23.8859 39.8089 23.8796 39.8201 23.8753 39.832C23.8473 39.914 23.8242 39.9987 23.8074 40.0855L23.3821 42.2356L22.8196 44.9376C22.7684 45.182 22.5919 45.381 22.3551 45.4594L18.3722 46.788C18.1347 46.8671 17.8727 46.8139 17.6856 46.6479L14.5435 43.8633C14.3571 43.698 14.2723 43.4459 14.3214 43.2014L15.319 38.2331C15.3625 38.0181 15.2882 37.7961 15.1243 37.6504L14.2527 36.8744C14.1154 36.7519 13.9241 36.7098 13.7476 36.7638C13.4057 36.8674 12.827 37.0733 12.4641 37.2036C12.2602 37.2771 12.1096 37.4522 12.0676 37.6651L11.4588 40.7439L11.4546 40.7453L10.8429 43.6399C10.7883 43.8976 10.7869 44.1588 10.8345 44.4089C10.8408 44.4418 10.8513 44.4726 10.8591 44.5048C10.871 44.5552 10.8815 44.6057 10.8976 44.6547C10.9032 44.6722 10.9116 44.6883 10.9179 44.7051C10.9214 44.7205 10.9249 44.7359 10.9298 44.7506C10.9298 44.7513 10.9298 44.752 10.9305 44.7527C10.9312 44.7548 10.9312 44.7569 10.9326 44.7597C10.9543 44.8242 10.9824 44.8872 11.0111 44.9488C11.0174 44.9621 11.0216 44.9761 11.0279 44.9895C11.0587 45.0525 11.0952 45.1134 11.133 45.1729C11.1414 45.1856 11.1477 45.1996 11.1561 45.2122C11.196 45.2717 11.2409 45.3284 11.2871 45.3838C11.2962 45.395 11.3039 45.4069 11.313 45.4181C11.3698 45.4832 11.4321 45.5455 11.498 45.6037L12.7598 46.7074L13.9255 47.7271L16.3244 49.8807C16.3902 49.9396 16.4596 49.9942 16.531 50.0425C16.5416 50.0495 16.5535 50.0551 16.564 50.0621C16.6256 50.1028 16.6887 50.1413 16.7545 50.1742C16.7657 50.1798 16.7784 50.184 16.7896 50.1889C16.8554 50.2204 16.9227 50.2498 16.9913 50.2743C17.0046 50.2793 17.0187 50.2814 17.032 50.2856C17.0978 50.3066 17.1637 50.3269 17.2309 50.3416C17.233 50.3416 17.2351 50.3416 17.2379 50.3423C17.2379 50.3423 17.2393 50.3423 17.24 50.3423C17.2548 50.3458 17.2702 50.3472 17.2856 50.3486C17.3003 50.3528 17.315 50.3577 17.3304 50.3605C17.3311 50.3605 17.3318 50.3605 17.3325 50.3605C17.3346 50.3605 17.3367 50.3619 17.3395 50.3619C17.4068 50.3752 17.4754 50.3829 17.5441 50.3885C17.5581 50.3899 17.5721 50.3934 17.5861 50.3941C17.659 50.399 17.7319 50.3983 17.8047 50.3948C17.8173 50.3948 17.8299 50.3955 17.8426 50.3948C17.9161 50.3899 17.989 50.3794 18.0618 50.3668C18.0745 50.3647 18.0871 50.364 18.0997 50.3619C18.1851 50.3451 18.2692 50.3227 18.3533 50.294L21.4051 49.2546L22.8777 48.7742L24.4709 48.2545C24.5549 48.2272 24.6362 48.1943 24.7147 48.1565C24.728 48.1502 24.7392 48.1418 24.7525 48.1355C24.8169 48.1025 24.8807 48.0682 24.9402 48.029C24.9529 48.0206 24.9641 48.0101 24.9767 48.0017C25.0348 47.9618 25.0923 47.9197 25.1455 47.8742C25.1567 47.8644 25.1658 47.8532 25.177 47.8434C25.2275 47.7979 25.2779 47.751 25.3235 47.7005C25.3235 47.7005 25.3263 47.6963 25.3277 47.6949C25.3277 47.6949 25.3291 47.6942 25.3291 47.6935C25.3396 47.6816 25.3487 47.669 25.3585 47.6564C25.3704 47.6431 25.3844 47.6319 25.3963 47.6179C25.43 47.5787 25.4594 47.5367 25.4909 47.4946C25.5105 47.468 25.5329 47.4435 25.5512 47.4162C25.6927 47.2047 25.7943 46.9638 25.8454 46.706L25.9904 45.9707L25.9946 45.9672L26.8353 41.8547C26.8858 41.6095 27.063 41.4092 27.3005 41.3301L31.2841 40.0022C31.5209 39.9231 31.7815 39.9763 31.9686 40.1409L31.9693 40.1416Z" fill="url(#paint3_linear_2161_364)"/>
<path d="M41.3248 29.712L46.128 28.0913C46.3361 28.0213 46.4909 27.8462 46.5358 27.6312L46.7726 26.4882C46.8097 26.3075 46.7509 26.1212 46.6163 25.9959C46.3557 25.7522 45.8884 25.3536 45.5935 25.105C45.4274 24.9649 45.2012 24.9229 44.9959 24.9923L42.0247 26.0043L42.0212 26.0015L39.2076 26.9196C38.9575 27.0009 38.7305 27.1305 38.5371 27.2971C38.5119 27.3189 38.4902 27.3434 38.4664 27.3665C38.4285 27.4022 38.39 27.4365 38.3557 27.475C38.3438 27.4883 38.334 27.5037 38.322 27.5178C38.3108 27.529 38.2989 27.5388 38.2884 27.5514C38.2884 27.5514 38.2877 27.5528 38.287 27.5528C38.2856 27.5542 38.2835 27.5563 38.2821 27.5577C38.2373 27.6088 38.1966 27.6641 38.1574 27.7202C38.149 27.7321 38.1385 27.7433 38.1308 27.7552C38.0915 27.8133 38.0572 27.8756 38.0243 27.938C38.0173 27.9513 38.0082 27.9639 38.0012 27.9772C37.9696 28.0409 37.943 28.1082 37.9178 28.1761C37.9129 28.1894 37.9059 28.202 37.901 28.216C37.873 28.2979 37.8498 28.3827 37.833 28.4695L37.508 30.1133L37.2074 31.6324L36.5411 34.7861C36.5229 34.8722 36.511 34.959 36.504 35.0459C36.5033 35.0585 36.504 35.0711 36.504 35.0844C36.4998 35.1586 36.4977 35.2322 36.5019 35.3057C36.5026 35.3183 36.5054 35.3309 36.5068 35.3435C36.5124 35.4164 36.5201 35.4892 36.5341 35.5607C36.5369 35.5747 36.5418 35.588 36.5446 35.6013C36.5594 35.6685 36.5748 35.7357 36.5958 35.8016C36.5965 35.8037 36.5972 35.8058 36.5986 35.8079C36.5986 35.8086 36.5986 35.8093 36.5986 35.81C36.6035 35.8247 36.6098 35.8387 36.6161 35.8527C36.6196 35.8674 36.6231 35.8828 36.628 35.8975C36.628 35.8975 36.628 35.8989 36.6287 35.8996C36.6294 35.9017 36.6294 35.9038 36.6308 35.9059C36.6532 35.9711 36.6813 36.0341 36.71 36.0971C36.7156 36.1097 36.7198 36.123 36.7261 36.1356C36.7583 36.2015 36.7955 36.2638 36.8347 36.3254C36.8417 36.3359 36.8466 36.3479 36.8536 36.3584C36.8942 36.4193 36.9398 36.4774 36.9874 36.5342C36.9958 36.544 37.0021 36.5545 37.0105 36.5643C37.068 36.6301 37.1296 36.6917 37.1962 36.7499L38.8461 38.1933L40.9058 40.031C41.0922 40.197 41.1756 40.4498 41.1258 40.6943L40.2851 44.8068C40.2347 45.0519 40.0574 45.2522 39.8199 45.3313L35.8363 46.6592C35.5995 46.7384 35.3389 46.6851 35.1519 46.5205L31.3463 43.1728C31.1816 43.0279 30.9525 42.9809 30.7437 43.0503L29.6354 43.4166C29.4603 43.4747 29.3285 43.619 29.2865 43.7983C29.2059 44.1463 29.0945 44.7493 29.0259 45.1296C28.9874 45.3432 29.0644 45.5604 29.227 45.7032L31.5894 47.77V47.7742L33.7906 49.7506C33.9868 49.9264 34.2117 50.058 34.4527 50.1421C34.4842 50.1533 34.5164 50.1596 34.548 50.1687C34.5977 50.1834 34.6467 50.1995 34.6972 50.2107C34.7147 50.2142 34.7329 50.2156 34.7504 50.2184C34.7658 50.2226 34.7806 50.2275 34.796 50.231C34.7967 50.231 34.7974 50.231 34.7981 50.231C34.8002 50.231 34.8023 50.2324 34.8051 50.2331C34.8716 50.2464 34.9403 50.2534 35.0082 50.2597C35.023 50.2611 35.0377 50.2647 35.0517 50.2654C35.1217 50.2703 35.1925 50.2689 35.2633 50.2661C35.2787 50.2661 35.2941 50.2668 35.3088 50.2661C35.3803 50.2619 35.4517 50.2506 35.5232 50.2387C35.5372 50.2366 35.5519 50.2359 35.5659 50.2331C35.6514 50.2163 35.7362 50.1939 35.8195 50.1652L37.4064 49.6245L38.8727 49.1252L41.9378 48.1251C42.0219 48.0977 42.1031 48.0648 42.1816 48.027C42.1928 48.0214 42.2033 48.0144 42.2152 48.0081C42.2811 47.9745 42.3462 47.9395 42.4072 47.8995C42.4177 47.8925 42.4275 47.8841 42.4373 47.8764C42.4976 47.8351 42.5571 47.7917 42.6118 47.7441C42.6223 47.735 42.6314 47.7238 42.6419 47.7146C42.693 47.6684 42.7435 47.6215 42.7897 47.5704C42.7911 47.569 42.7925 47.5669 42.7939 47.5648C42.7939 47.5648 42.7946 47.5641 42.7953 47.5634C42.8058 47.5522 42.8142 47.5396 42.824 47.527C42.8353 47.5164 42.8465 47.5059 42.857 47.4947C42.857 47.494 42.8577 47.4933 42.8584 47.4926C42.8598 47.4912 42.8619 47.4891 42.8633 47.4877C42.9088 47.4359 42.9494 47.3799 42.9887 47.3239C42.9971 47.3119 43.0062 47.3021 43.0146 47.2902C43.0552 47.23 43.091 47.1663 43.1246 47.1011C43.1309 47.0899 43.1379 47.0794 43.1435 47.0682C43.1764 47.0024 43.2031 46.9338 43.229 46.8644C43.2332 46.8525 43.2395 46.8413 43.2437 46.8287C43.2717 46.7468 43.2948 46.662 43.3117 46.5752L43.9373 43.4131L44.2575 41.8975L44.6035 40.2579C44.6218 40.1718 44.6337 40.085 44.6407 39.9981C44.6414 39.9834 44.6407 39.9694 44.6407 39.9547C44.6442 39.8826 44.6463 39.8104 44.6421 39.739C44.6414 39.7236 44.6379 39.7089 44.6365 39.6935C44.6309 39.6227 44.6239 39.5527 44.6106 39.4834C44.6078 39.4686 44.6028 39.4553 44.5993 39.4406C44.5853 39.3741 44.5699 39.3076 44.5489 39.2424C44.5489 39.2424 44.5468 39.2382 44.5461 39.2361C44.5461 39.2361 44.5461 39.2347 44.5461 39.234C44.5412 39.2193 44.5342 39.2046 44.5286 39.1899C44.523 39.1731 44.5202 39.1549 44.5146 39.1381C44.4978 39.0891 44.4753 39.0421 44.455 38.9945C44.4417 38.9644 44.4319 38.9329 44.4172 38.9028C44.3044 38.6744 44.1468 38.4664 43.9485 38.2927L43.3845 37.7997V37.7948L40.241 35.0109C40.0539 34.8449 39.9691 34.5914 40.0189 34.3462L40.8603 30.2337C40.91 29.9893 41.0866 29.7904 41.3227 29.7106L41.3248 29.712Z" fill="url(#paint4_linear_2161_364)"/>
<path d="M36.9674 16.398L37.965 11.4297C38.0085 11.2147 37.9342 10.9927 37.7703 10.847L36.8987 10.071C36.7614 9.94845 36.5701 9.90642 36.3936 9.95965C36.0517 10.0633 35.473 10.2685 35.1101 10.3995C34.9062 10.473 34.7556 10.6481 34.7136 10.861L34.1048 13.9398L34.1006 13.9412L33.4889 16.8358C33.4343 17.0935 33.4329 17.354 33.4805 17.6047C33.4861 17.6377 33.4973 17.6685 33.5051 17.7007C33.517 17.7511 33.5275 17.8016 33.5436 17.8506C33.5492 17.8681 33.5576 17.8842 33.5639 17.901C33.5674 17.9164 33.5709 17.9318 33.5758 17.9465C33.5758 17.9472 33.5758 17.9479 33.5765 17.9486C33.5772 17.9507 33.5772 17.9535 33.5786 17.9556C33.601 18.0201 33.6284 18.0831 33.6571 18.1447C33.6634 18.158 33.6676 18.172 33.6739 18.1853C33.7047 18.2484 33.7412 18.3093 33.779 18.3688C33.7867 18.3814 33.793 18.3955 33.8014 18.4081C33.8406 18.4676 33.8862 18.5243 33.9324 18.5796C33.9415 18.5909 33.9492 18.6028 33.9583 18.614C34.0158 18.6791 34.0774 18.7414 34.144 18.7996L35.4058 19.9033L36.5715 20.923L38.9704 23.0766C39.0362 23.1355 39.1049 23.1894 39.177 23.2384C39.1876 23.2454 39.1995 23.251 39.21 23.258C39.2716 23.2987 39.3347 23.3372 39.4005 23.3701C39.4117 23.3757 39.4244 23.3792 39.4356 23.3848C39.5014 23.4163 39.5687 23.4457 39.6373 23.4702C39.6506 23.4744 39.6647 23.4772 39.678 23.4814C39.7438 23.5025 39.8097 23.5228 39.8769 23.5368C39.879 23.5368 39.8818 23.5368 39.8839 23.5375C39.8846 23.5375 39.8853 23.5375 39.886 23.5375C39.9015 23.5403 39.9162 23.5424 39.9316 23.5438C39.9463 23.548 39.961 23.5529 39.9764 23.5557C39.9771 23.5557 39.9778 23.5557 39.9785 23.5557C39.9806 23.5557 39.9827 23.5571 39.9848 23.5571C40.0528 23.5704 40.1214 23.5781 40.1901 23.5837C40.2041 23.5851 40.2174 23.5886 40.2321 23.5893C40.305 23.5942 40.3779 23.5935 40.4514 23.59C40.464 23.59 40.4766 23.5907 40.49 23.59C40.5628 23.5851 40.6364 23.5746 40.7092 23.562C40.7218 23.5599 40.7345 23.5592 40.7471 23.5571C40.8325 23.5403 40.9173 23.5179 41.0007 23.4892L43.0758 22.7825L45.6981 21.9182C45.9349 21.8405 46.1956 21.8937 46.3826 22.0597L49.5248 24.8436C49.7118 25.0096 49.7966 25.2632 49.7469 25.5083L48.9055 29.6208C48.8557 29.8652 48.6792 30.0648 48.4431 30.1439L43.6405 31.7646C43.4324 31.8346 43.2776 32.0097 43.2328 32.2247L42.996 33.3677C42.9588 33.5477 43.0177 33.7347 43.1522 33.86C43.4128 34.1038 43.8801 34.5023 44.1751 34.7509C44.3404 34.891 44.5674 34.933 44.7727 34.8637L47.7439 33.8516L47.7474 33.8544L50.561 32.9363C50.8111 32.855 51.0381 32.7255 51.2314 32.5595C51.2566 32.5378 51.2784 32.5133 51.3022 32.4901C51.3393 32.4544 51.3785 32.4201 51.4129 32.3816C51.4248 32.3683 51.4346 32.3529 51.4465 32.3389C51.4577 32.3284 51.4696 32.3179 51.4801 32.306C51.4801 32.306 51.4808 32.3045 51.4815 32.3045C51.4829 32.3024 51.485 32.3017 51.4864 32.2996C51.5313 32.2485 51.5719 32.1932 51.6111 32.1372C51.6195 32.1253 51.6301 32.114 51.6385 32.1021C51.6777 32.044 51.712 31.9817 51.745 31.9194C51.752 31.906 51.7611 31.8934 51.7674 31.8794C51.7989 31.815 51.8255 31.7478 51.8507 31.6805C51.8557 31.6672 51.8627 31.6546 51.8676 31.6406C51.8956 31.5587 51.9187 31.4739 51.9355 31.3871L52.2606 29.7433L52.5611 28.2243L53.2274 25.0706C53.2456 24.9837 53.2582 24.8969 53.2645 24.8107C53.2652 24.7981 53.2645 24.7855 53.2645 24.7722C53.2687 24.6987 53.2708 24.6244 53.2666 24.5516C53.2659 24.539 53.2631 24.5264 53.2617 24.5138C53.2561 24.4409 53.2484 24.3681 53.2344 24.2967C53.2316 24.2827 53.2267 24.2693 53.2239 24.256C53.2092 24.1888 53.1938 24.1216 53.1728 24.0557C53.1728 24.0536 53.1714 24.0515 53.17 24.0494C53.17 24.0494 53.17 24.048 53.17 24.0473C53.1651 24.0326 53.1587 24.0186 53.1524 24.0046C53.1489 23.9899 53.1454 23.9745 53.1405 23.9598C53.1405 23.9591 53.1398 23.9584 53.1398 23.9577C53.1398 23.9556 53.1384 23.9535 53.1377 23.9514C53.116 23.8863 53.088 23.8232 53.0586 23.7609C53.0523 23.7483 53.0488 23.7343 53.0424 23.7217C53.0102 23.6565 52.9731 23.5935 52.9339 23.5319C52.9269 23.5207 52.922 23.5095 52.9149 23.499C52.8743 23.438 52.8288 23.3799 52.7811 23.3232C52.7727 23.3134 52.7664 23.3022 52.758 23.293C52.7006 23.2279 52.6389 23.1656 52.5724 23.1075L50.1455 20.9854L48.993 19.9502L47.746 18.8311C47.6801 18.7722 47.6115 18.7183 47.5393 18.6693C47.5274 18.6609 47.5141 18.6553 47.5022 18.6476C47.4412 18.6084 47.3803 18.5705 47.3158 18.5383C47.3025 18.5313 47.2878 18.5271 47.2738 18.5208C47.21 18.4907 47.1449 18.4613 47.079 18.4382C47.065 18.4333 47.0503 18.4312 47.0363 18.4263C46.9711 18.4053 46.906 18.3856 46.8394 18.3709C46.8394 18.3709 46.8345 18.3709 46.8324 18.3702C46.8317 18.3702 46.831 18.3702 46.8303 18.3702C46.8149 18.3667 46.7995 18.366 46.7834 18.3639C46.7659 18.3597 46.749 18.3534 46.7315 18.3499C46.6811 18.3401 46.6292 18.3359 46.5774 18.3296C46.5445 18.3254 46.5122 18.3191 46.4793 18.317C46.225 18.3002 45.9658 18.3331 45.7171 18.4179L45.0074 18.6595L45.0025 18.6574L41.0196 19.986C40.7821 20.0651 40.5201 20.0119 40.333 19.8459L37.1909 17.0613C37.0045 16.896 36.9197 16.6439 36.9688 16.3994L36.9674 16.398Z" fill="url(#paint5_linear_2161_364)"/>
<defs>
<linearGradient id="paint0_linear_2161_364" x1="1.96105" y1="26.7717" x2="53.2639" y2="26.8881" gradientUnits="userSpaceOnUse">
<stop stop-color="#FF6B43"/>
<stop offset="1" stop-color="#FFAA45"/>
</linearGradient>
<linearGradient id="paint1_linear_2161_364" x1="1.9613" y1="26.7717" x2="53.2641" y2="26.8882" gradientUnits="userSpaceOnUse">
<stop stop-color="#FF6B43"/>
<stop offset="1" stop-color="#FFAA45"/>
</linearGradient>
<linearGradient id="paint2_linear_2161_364" x1="1.9611" y1="26.7718" x2="53.2639" y2="26.8882" gradientUnits="userSpaceOnUse">
<stop stop-color="#FF6B43"/>
<stop offset="1" stop-color="#FFAA45"/>
</linearGradient>
<linearGradient id="paint3_linear_2161_364" x1="1.96106" y1="26.7716" x2="53.2639" y2="26.8881" gradientUnits="userSpaceOnUse">
<stop stop-color="#FF6B43"/>
<stop offset="1" stop-color="#FFAA45"/>
</linearGradient>
<linearGradient id="paint4_linear_2161_364" x1="1.96086" y1="26.7717" x2="53.2637" y2="26.8882" gradientUnits="userSpaceOnUse">
<stop stop-color="#FF6B43"/>
<stop offset="1" stop-color="#FFAA45"/>
</linearGradient>
<linearGradient id="paint5_linear_2161_364" x1="1.96113" y1="26.7716" x2="53.2639" y2="26.888" gradientUnits="userSpaceOnUse">
<stop stop-color="#FF6B43"/>
<stop offset="1" stop-color="#FFAA45"/>
</linearGradient>
</defs>
</svg>
