<svg xmlns="http://www.w3.org/2000/svg" id="We_are_robonomics" viewBox="0 0 244.473 266.813"><defs><style>.cls-1,.cls-2,.cls-3{fill:none;stroke-miterlimit:10}.cls-1{stroke:#0098FF;opacity:.5}.cls-2,.cls-3{stroke:#F7E135;stroke-width:4px}.cls-2{stroke-linecap:round;stroke-linejoin:round}.cls-4{fill:#0098FF}.cls-5{fill:#0098FF}</style></defs><path id="Line_83" d="M142.965 0L0 56.451" class="cls-1" data-name="Line 83" transform="translate(51.204 77.667)"/><path id="Line_84" d="M0 0l139.217 76.468" class="cls-1" data-name="Line 84" transform="translate(51.204 134.119)"/><path id="Path_107" d="M64.375 284.594L52.3 157.148 4.4 92" class="cls-1" data-name="Path 107" transform="translate(-1.101 -23.029)"/><path id="Path_108" d="M68.3 136.046L117.1 7.7l94.161 71.895 45.881-53.228-49.625 186.147" class="cls-1" data-name="Path 108" transform="translate(-17.096 -1.927)"/><path id="Path_109" d="M49.5 119.2v100.833l48.355 29.613V146.938z" class="cls-2" data-name="Path 109" transform="translate(-12.391 -29.837)"/><path id="Path_110" d="M114 135.048L222.7 71.7v103.082L114 237.755z" class="cls-2" data-name="Path 110" transform="translate(-28.536 -17.948)"/><path id="Path_111" d="M165.1 45.57l21.666-12.97L235.5 61.913" class="cls-2" data-name="Path 111" transform="translate(-41.327 -8.16)"/><path id="Line_85" d="M0 37.709L62.899 0" class="cls-2" data-name="Line 85" transform="translate(37.109 51.653)"/><ellipse id="Ellipse_96" cx="18.217" cy="10.496" class="cls-3" data-name="Ellipse 96" rx="18.217" ry="10.496" transform="rotate(-59.67 177.01 -11.264)"/><ellipse id="Ellipse_97" cx="18.217" cy="10.496" class="cls-3" data-name="Ellipse 97" rx="18.217" ry="10.496" transform="rotate(-59.67 176.53 -72.63)"/><path id="Path_112" d="M166.574 238.57c-1.724.975-3.074-.075-3.074-2.324V224.4a7.609 7.609 0 0 1 3.074-5.923c1.724-.975 3.074.075 3.074 2.324v11.845a7.609 7.609 0 0 1-3.074 5.924z" class="cls-4" data-name="Path 112" transform="translate(-40.926 -54.597)"/><path id="Path_113" d="M179.774 230.47c-1.724.975-3.074-.075-3.074-2.324V216.3a7.609 7.609 0 0 1 3.074-5.923c1.724-.975 3.074.075 3.074 2.324v11.845c-.001 2.254-1.348 4.954-3.074 5.924z" class="cls-4" data-name="Path 113" transform="translate(-44.23 -52.569)"/><path id="Path_114" d="M192.874 222.97c-1.724.975-3.074-.075-3.074-2.324V208.8a7.609 7.609 0 0 1 3.074-5.923c1.724-.975 3.074.075 3.074 2.324v11.845c-.001 2.254-1.348 4.954-3.074 5.924z" class="cls-4" data-name="Path 114" transform="translate(-47.51 -50.692)"/><path id="Path_115" d="M206.074 214.97c-1.724.975-3.074-.075-3.074-2.324V200.8a7.609 7.609 0 0 1 3.074-5.923c1.724-.975 3.074.075 3.074 2.324v11.845a7.609 7.609 0 0 1-3.074 5.924z" class="cls-4" data-name="Path 115" transform="translate(-50.814 -48.69)"/><path id="Path_116" d="M219.174 207.17c-1.724.975-3.074-.075-3.074-2.324V193a7.609 7.609 0 0 1 3.074-5.923c1.724-.975 3.074.075 3.074 2.324v11.845a7.2 7.2 0 0 1-3.074 5.924z" class="cls-4" data-name="Path 116" transform="translate(-54.093 -46.737)"/><path id="Line_86" d="M0 0l5.023 27.663" class="cls-2" data-name="Line 86" transform="translate(129.921 44.606)"/><path id="Line_87" d="M4.948 0L0 27.663" class="cls-2" data-name="Line 87" transform="translate(96.335 44.606)"/><g id="Group_57" data-name="Group 57" transform="translate(96.335 36.585)"><ellipse id="Ellipse_98" cx="14.319" cy="8.022" class="cls-2" data-name="Ellipse 98" rx="14.319" ry="8.022" transform="translate(4.948)"/><path id="Path_117" d="M128.5 96.4c0 5.923 8.621 10.8 19.342 10.8s19.342-4.8 19.342-10.8" class="cls-2" data-name="Path 117" transform="translate(-128.5 -60.715)"/></g><path id="Line_88" d="M0 0l1.949 17.243" class="cls-2" data-name="Line 88" transform="translate(121.824 57.126)"/><path id="Line_89" d="M0 0l48.355 27.289" class="cls-2" data-name="Line 89" transform="translate(37.109 126.322)"/><circle id="Ellipse_99" cx="3.299" cy="3.299" r="3.299" class="cls-5" data-name="Ellipse 99" transform="translate(0 65.673)"/><circle id="Ellipse_100" cx="5.398" cy="5.398" r="5.398" class="cls-4" data-name="Ellipse 100" transform="translate(188.771 72.27)"/><circle id="Ellipse_101" cx="4.723" cy="4.723" r="4.723" class="cls-4" data-name="Ellipse 101" transform="translate(46.481 129.396)"/><circle id="Ellipse_102" cx="4.423" cy="4.423" r="4.423" class="cls-5" data-name="Ellipse 102" transform="translate(235.626 20.017)"/><circle id="Ellipse_103" cx="5.248" cy="5.248" r="5.248" class="cls-5" data-name="Ellipse 103" transform="translate(58.026 256.318)"/><circle id="Ellipse_104" cx="6.822" cy="6.822" r="6.822" class="cls-5" data-name="Ellipse 104" transform="translate(183.598 203.765)"/><circle id="Ellipse_105" cx="5.773" cy="5.773" r="5.773" class="cls-5" data-name="Ellipse 105" transform="translate(94.236)"/></svg>