<svg xmlns="http://www.w3.org/2000/svg" id="We_are_decentralization" viewBox="0 0 220.766 281.963"><defs><style>.cls-1{fill:#0098FF}.cls-2,.cls-4{fill:none;stroke-miterlimit:10}.cls-2{stroke:#0098FF;opacity:.5}.cls-3{fill:#F7E135}.cls-4{stroke:#F7E135;stroke-linecap:round;stroke-linejoin:round;stroke-width:4px}</style></defs><circle id="Ellipse_517" cx="4.769" cy="4.769" r="4.769" class="cls-1" data-name="Ellipse 517" transform="translate(0 134.844)"/><circle id="Ellipse_518" cx="5.828" cy="5.828" r="5.828" class="cls-1" data-name="Ellipse 518" transform="translate(209.11 83.096)"/><circle id="Ellipse_519" cx="5.828" cy="5.828" r="5.828" class="cls-1" data-name="Ellipse 519" transform="translate(5.387 270.306)"/><circle id="Ellipse_520" cx="5.828" cy="5.828" r="5.828" class="cls-1" data-name="Ellipse 520" transform="translate(158.775 254.146)"/><circle id="Ellipse_521" cx="5.828" cy="5.828" r="5.828" class="cls-1" data-name="Ellipse 521" transform="translate(108.794)"/><path id="Path_1580" d="M5.4 140.384L115.253 6.6 71.188 112.126l103.584 54.308L11.846 276.906" class="cls-2" data-name="Path 1580" transform="translate(-.631 -.772)"/><path id="Line_229" d="M144.381 0L0 22.43" class="cls-2" data-name="Line 229" transform="translate(70.557 88.925)"/><circle id="Ellipse_522" cx="6.358" cy="6.358" r="6.358" class="cls-3" data-name="Ellipse 522" transform="translate(64.199 104.996)"/><circle id="Ellipse_523" cx="5.033" cy="5.033" r="5.033" class="cls-3" data-name="Ellipse 523" transform="translate(169.107 160.629)"/><path id="Line_230" d="M0 0l94.046 148.62" class="cls-2" data-name="Line 230" transform="translate(70.557 111.354)"/><path id="Line_231" d="M9.537 0L0 95.636" class="cls-2" data-name="Line 231" transform="translate(164.603 165.663)"/><g id="Group_553" data-name="Group 553" transform="translate(27.211 33.657)"><ellipse id="Ellipse_524" cx="4.68" cy="8.213" class="cls-4" data-name="Ellipse 524" rx="4.68" ry="8.213" transform="rotate(-30.34 10.842 -5.484)"/><ellipse id="Ellipse_525" cx="4.68" cy="8.213" class="cls-4" data-name="Ellipse 525" rx="4.68" ry="8.213" transform="rotate(-30.34 76.89 -10.614)"/><ellipse id="Ellipse_526" cx="4.68" cy="8.213" class="cls-4" data-name="Ellipse 526" rx="4.68" ry="8.213" transform="rotate(-30.34 90.928 -60.887)"/><ellipse id="Ellipse_527" cx="4.68" cy="8.213" class="cls-4" data-name="Ellipse 527" rx="4.68" ry="8.213" transform="rotate(-30.34 285.542 -58.283)"/><ellipse id="Ellipse_528" cx="4.68" cy="8.213" class="cls-4" data-name="Ellipse 528" rx="4.68" ry="8.213" transform="rotate(-30.34 238.728 -92.143)"/><ellipse id="Ellipse_529" cx="4.68" cy="8.213" class="cls-4" data-name="Ellipse 529" rx="4.68" ry="8.213" transform="rotate(-30.34 338.306 -191.194)"/><ellipse id="Ellipse_530" cx="4.68" cy="8.213" class="cls-4" data-name="Ellipse 530" rx="4.68" ry="8.213" transform="rotate(-30.34 291.773 -154.804)"/><ellipse id="Ellipse_531" cx="4.68" cy="8.213" class="cls-4" data-name="Ellipse 531" rx="4.68" ry="8.213" transform="rotate(-30.34 358.18 -232.83)"/><ellipse id="Ellipse_532" cx="4.68" cy="8.213" class="cls-4" data-name="Ellipse 532" rx="4.68" ry="8.213" transform="rotate(-30.34 270.59 -194.182)"/><ellipse id="Ellipse_533" cx="4.68" cy="8.213" class="cls-4" data-name="Ellipse 533" rx="4.68" ry="8.213" transform="rotate(-30.34 421.48 -185.567)"/><ellipse id="Ellipse_534" cx="4.68" cy="8.213" class="cls-4" data-name="Ellipse 534" rx="4.68" ry="8.213" transform="rotate(-30.34 353.915 -95.191)"/><ellipse id="Ellipse_535" cx="4.68" cy="8.213" class="cls-4" data-name="Ellipse 535" rx="4.68" ry="8.213" transform="rotate(-30.34 289.885 -13.231)"/><ellipse id="Ellipse_536" cx="4.68" cy="8.213" class="cls-4" data-name="Ellipse 536" rx="4.68" ry="8.213" transform="rotate(-30.34 151.242 32.567)"/><ellipse id="Ellipse_537" cx="4.68" cy="8.213" class="cls-4" data-name="Ellipse 537" rx="4.68" ry="8.213" transform="rotate(-30.34 218.394 4.841)"/><ellipse id="Ellipse_538" cx="4.68" cy="8.213" class="cls-4" data-name="Ellipse 538" rx="4.68" ry="8.213" transform="rotate(-30.34 160.334 -129.858)"/><ellipse id="Ellipse_539" cx="4.68" cy="8.213" class="cls-4" data-name="Ellipse 539" rx="4.68" ry="8.213" transform="rotate(-30.34 181.019 -200.442)"/><ellipse id="Ellipse_540" cx="4.68" cy="8.213" class="cls-4" data-name="Ellipse 540" rx="4.68" ry="8.213" transform="rotate(-30.34 94.78 -108.262)"/><ellipse id="Ellipse_541" cx="4.68" cy="8.213" class="cls-4" data-name="Ellipse 541" rx="4.68" ry="8.213" transform="rotate(-30.34 396.84 -60.746)"/><ellipse id="Ellipse_542" cx="4.68" cy="8.213" class="cls-4" data-name="Ellipse 542" rx="4.68" ry="8.213" transform="rotate(-30.34 365.172 1.956)"/><ellipse id="Ellipse_543" cx="4.68" cy="8.213" class="cls-4" data-name="Ellipse 543" rx="4.68" ry="8.213" transform="rotate(-30.34 414.974 20.716)"/><ellipse id="Ellipse_544" cx="4.68" cy="8.213" class="cls-4" data-name="Ellipse 544" rx="4.68" ry="8.213" transform="rotate(-30.34 346.045 93.878)"/><ellipse id="Ellipse_545" cx="4.68" cy="8.213" class="cls-4" data-name="Ellipse 545" rx="4.68" ry="8.213" transform="rotate(-30.34 300.293 43.167)"/><ellipse id="Ellipse_546" cx="4.68" cy="8.213" class="cls-4" data-name="Ellipse 546" rx="4.68" ry="8.213" transform="rotate(-30.34 439.76 -26.032)"/><path id="Line_232" d="M28.435 1.236L0 0" class="cls-4" data-name="Line 232" transform="translate(101.363 69.309)"/><path id="Line_233" d="M0 0l10.95 16.513" class="cls-4" data-name="Line 233" transform="translate(79.993 44.848)"/><path id="Line_234" d="M5.122 0L0 33.91" class="cls-4" data-name="Line 234" transform="translate(89 73.283)"/><path id="Line_235" d="M0 18.015L6.711 0" class="cls-4" data-name="Line 235" transform="translate(79.11 118.142)"/><path id="Line_236" d="M0 0l63.846 6.446" class="cls-4" data-name="Line 236" transform="translate(82.554 144.281)"/><path id="Line_237" d="M0 0l13.158 9.89" class="cls-4" data-name="Line 237" transform="translate(132.094 135.274)"/><path id="Line_238" d="M0 0l4.415 19.957" class="cls-4" data-name="Line 238" transform="translate(144.722 122.028)"/><path id="Line_239" d="M12.716 2.208L0 0" class="cls-4" data-name="Line 239" transform="translate(156.643 151.081)"/><path id="Line_240" d="M0 0l5.475 27.817" class="cls-4" data-name="Line 240" transform="translate(152.581 156.732)"/><path id="Line_241" d="M0 .353L16.867 0" class="cls-4" data-name="Line 241" transform="translate(29.57 42.817)"/><path id="Line_242" d="M6.535 17.838L0 0" class="cls-4" data-name="Line 242" transform="translate(14.47 16.855)"/><path id="Line_243" d="M0 31.879L8.742 0" class="cls-4" data-name="Line 243" transform="translate(13.41 47.674)"/><path id="Line_244" d="M0 0l45.036 84.421" class="cls-4" data-name="Line 244" transform="translate(27.627 49.44)"/><path id="Line_245" d="M0 0l29.494 18.544" class="cls-4" data-name="Line 245" transform="translate(41.492 119.025)"/><path id="Line_246" d="M0 5.475L13.158 0" class="cls-4" data-name="Line 246" transform="translate(59.506 143.221)"/><path id="Line_247" d="M0 0l17.308 17.838" class="cls-4" data-name="Line 247" transform="translate(81.583 147.46)"/><path id="Line_248" d="M0 37.089L16.955 0" class="cls-4" data-name="Line 248" transform="translate(58.888 146.93)"/><path id="Line_249" d="M0 0l25.256 5.74" class="cls-4" data-name="Line 249" transform="translate(62.95 191.613)"/><path id="Line_250" d="M0 0l15.012 20.664" class="cls-4" data-name="Line 250" transform="translate(61.802 196.117)"/><path id="Line_251" d="M0 15.365L1.148 0" class="cls-4" data-name="Line 251" transform="translate(55.356 195.587)"/><path id="Line_252" d="M0 2.738L38.767 0" class="cls-4" data-name="Line 252" transform="translate(13.587 190.2)"/><path id="Line_253" d="M0 0l18.544 16.867" class="cls-4" data-name="Line 253" transform="translate(33.014 167.771)"/></g></svg>