<svg xmlns="http://www.w3.org/2000/svg" id="We_are_AI" viewBox="0 0 254.538 204.539"><defs><style>.cls-1{fill:#0098FF}.cls-2,.cls-4,.cls-5{fill:none;stroke-miterlimit:10}.cls-2{stroke:#0098FF;opacity:.5}.cls-3{fill:#F7E135}.cls-4,.cls-5{stroke:#F7E135;stroke-width:4px}.cls-5{stroke-linecap:round;stroke-linejoin:round}</style></defs><circle id="Ellipse_580" cx="3.918" cy="3.918" r="3.918" class="cls-1" data-name="Ellipse 580"/><circle id="Ellipse_581" cx="3.918" cy="3.918" r="3.918" class="cls-1" data-name="Ellipse 581" transform="translate(246.701 93.884)"/><circle id="Ellipse_582" cx="5.172" cy="5.172" r="5.172" class="cls-1" data-name="Ellipse 582" transform="translate(3.918 132.598)"/><circle id="Ellipse_583" cx="5.172" cy="5.172" r="5.172" class="cls-1" data-name="Ellipse 583" transform="translate(181.891 194.195)"/><path id="Path_1923" d="M7.116 141.124l165.2-95.843 79.386 53.6L5 5l183.145 195.448" class="cls-2" data-name="Path 1923" transform="translate(-1.082 -1.082)"/><circle id="Ellipse_584" cx="4.075" cy="4.075" r="4.075" class="cls-3" data-name="Ellipse 584" transform="translate(59.794 141.845)"/><path id="Path_1924" d="M268.228 110L81.4 158.043 188.842 56.4" class="cls-2" data-name="Path 1924" transform="translate(-17.609 -12.201)"/><circle id="Ellipse_585" cx="6.348" cy="6.348" r="6.348" class="cls-3" data-name="Ellipse 585" transform="translate(164.807 37.146)"/><g id="Group_820" data-name="Group 820" transform="translate(36.296 3.849)"><g id="Group_818" data-name="Group 818" transform="translate(0 5.477)"><path id="Path_1925" d="M119.786 219.435l6.348-18.651 13.793-5.251 6.818-10.344s-22.178-19.514-38.714-28.839-38.008-12.3-38.008-12.3L59.6 131.585l6.818-6.5 11.52-19.285 10.262 7.6c0-12.774 15.987-10.736 30.8-1.8 12.147 7.288 22.727 20.376 29.858 24.529 15.83 9.169 28.526 32.679 28.526 45.375s-12.46 12.774-12.46 12.774l-18.181-9.247" class="cls-4" data-name="Path 1925" transform="translate(-49.189 -31.902)"/><path id="Path_1926" d="M174.434 162.955s20.611 11.207 26.1 1.332c5.407-9.874-1.489-30.877-1.489-30.877s2.508-18.965-5.407-31.739a100.051 100.051 0 0 0-19.122-21.943s-1.724-10.971-14.341-23.667-22.57-14.42-22.57-14.42-11.363-15.36-30.015-20.3c0 0-15.282-2.586-19.67 2.038 0 0-9.718-6.818-16.3-4.153-10.035 4.157-9.33 16.226-9.33 16.226S44.109 61.391 46.538 82.629A78.565 78.565 0 0 0 56.8 112.8" class="cls-4" data-name="Path 1926" transform="translate(-46.315 -13.352)"/><path id="Path_1927" d="M53.2 65.2l17.162 10.658 6.191 21.473" class="cls-4" data-name="Path 1927" transform="translate(-47.804 -23.43)"/><path id="Path_1928" d="M132.214 94.734l-1.176-27.272-7.6-19.984-18.496-15.751-5.642-9.718L116.933 11.9" class="cls-4" data-name="Path 1928" transform="translate(-57.777 -11.9)"/><path id="Line_277" d="M0 6.74L10.893 0" class="cls-4" data-name="Line 277" transform="translate(22.715 28.134)"/><path id="Line_278" d="M6.426 0L0 6.034" class="cls-4" data-name="Line 278" transform="translate(51.554 28.996)"/><path id="Path_1929" d="M92.2 69.9l11.363 6.583 9.639 2.664 5.251 9.874" class="cls-4" data-name="Path 1929" transform="translate(-56.241 -24.447)"/><path id="Path_1930" d="M89.2 88.3v8.777l6.661 7.758" class="cls-4" data-name="Path 1930" transform="translate(-55.592 -28.427)"/><path id="Path_1931" d="M66.123 125.443l-7.523-7.758V106.4" class="cls-4" data-name="Path 1931" transform="translate(-48.972 -32.343)"/><path id="Path_1932" d="M150.19 55.529L138.2 47.3l13.009 35.344" class="cls-4" data-name="Path 1932" transform="translate(-66.192 -19.558)"/><path id="Path_1933" d="M180.293 86.3l-6.818 2.508-1.175 24.764" class="cls-4" data-name="Path 1933" transform="translate(-73.569 -27.995)"/><path id="Line_279" d="M13.793 5.329L0 0" class="cls-4" data-name="Line 279" transform="translate(99.358 72.647)"/><path id="Path_1934" d="M194.8 92l8.15 15.517L214.862 121" class="cls-4" data-name="Path 1934" transform="translate(-78.436 -29.228)"/><path id="Line_280" d="M0 5.486L6.426 0" class="cls-4" data-name="Line 280" transform="translate(111.27 108.461)"/><path id="Line_281" d="M0 10.736V0" class="cls-4" data-name="Line 281" transform="translate(90.111 85.656)"/><path id="Path_1935" d="M204.7 181.956L217 178.9l9.326 10.5" class="cls-4" data-name="Path 1935" transform="translate(-80.578 -48.026)"/><path id="Line_282" d="M3.056 14.498L0 0" class="cls-4" data-name="Line 282" transform="translate(133.37 116.376)"/><path id="Line_283" d="M0 4.78L6.583 0" class="cls-4" data-name="Line 283" transform="translate(134.937 103.445)"/><path id="Path_1936" d="M113.2 130l11.363 11.6 17.633 5.094 19.827 17.706" class="cls-4" data-name="Path 1936" transform="translate(-60.784 -37.448)"/><path id="Path_1937" d="M88.1 140.3l14.576 9.874 8.464-1.411 40.046 29.388" class="cls-4" data-name="Path 1937" transform="translate(-55.354 -39.676)"/><path id="Line_284" d="M0 0l.705 13.636" class="cls-4" data-name="Line 284" transform="translate(114.483 137.143)"/><ellipse id="Ellipse_586" cx="2.743" cy="4.702" class="cls-3" data-name="Ellipse 586" rx="2.743" ry="4.702" transform="rotate(-30.34 105.257 -132.917)"/><ellipse id="Ellipse_587" cx="2.743" cy="4.702" class="cls-3" data-name="Ellipse 587" rx="2.743" ry="4.702" transform="rotate(-30.34 151.994 -117.72)"/><ellipse id="Ellipse_588" cx="2.743" cy="4.702" class="cls-3" data-name="Ellipse 588" rx="2.743" ry="4.702" transform="rotate(-30.34 152.746 -160.489)"/><ellipse id="Ellipse_589" cx="2.743" cy="4.702" class="cls-3" data-name="Ellipse 589" rx="2.743" ry="4.702" transform="rotate(-30.34 166.742 -176.072)"/><ellipse id="Ellipse_590" cx="2.743" cy="4.702" class="cls-3" data-name="Ellipse 590" rx="2.743" ry="4.702" transform="rotate(-30.34 198.447 -183.005)"/><ellipse id="Ellipse_591" cx="2.743" cy="4.702" class="cls-3" data-name="Ellipse 591" rx="2.743" ry="4.702" transform="rotate(-30.34 253.604 -202.03)"/><ellipse id="Ellipse_592" cx="2.743" cy="4.702" class="cls-3" data-name="Ellipse 592" rx="2.743" ry="4.702" transform="rotate(-30.34 250.514 -155.72)"/><ellipse id="Ellipse_593" cx="2.743" cy="4.702" class="cls-3" data-name="Ellipse 593" rx="2.743" ry="4.702" transform="rotate(-30.34 302.316 -178.712)"/><ellipse id="Ellipse_594" cx="2.743" cy="4.702" class="cls-3" data-name="Ellipse 594" rx="2.743" ry="4.702" transform="rotate(-30.34 196.89 -115.661)"/><ellipse id="Ellipse_595" cx="2.743" cy="4.702" class="cls-3" data-name="Ellipse 595" rx="2.743" ry="4.702" transform="rotate(-30.34 142.387 -75.202)"/><ellipse id="Ellipse_596" cx="2.743" cy="4.702" class="cls-3" data-name="Ellipse 596" rx="2.743" ry="4.702" transform="rotate(-30.34 95.582 -37.731)"/><ellipse id="Ellipse_597" cx="2.743" cy="4.702" class="cls-3" data-name="Ellipse 597" rx="2.743" ry="4.702" transform="rotate(-30.34 61.368 -40.516)"/><ellipse id="Ellipse_598" cx="2.743" cy="4.702" class="cls-3" data-name="Ellipse 598" rx="2.743" ry="4.702" transform="rotate(-30.34 83 -70.812)"/><ellipse id="Ellipse_599" cx="2.743" cy="4.702" class="cls-3" data-name="Ellipse 599" rx="2.743" ry="4.702" transform="rotate(-30.34 120.486 -24.472)"/><ellipse id="Ellipse_600" cx="2.743" cy="4.702" class="cls-3" data-name="Ellipse 600" rx="2.743" ry="4.702" transform="rotate(-30.34 134.131 26.729)"/><ellipse id="Ellipse_601" cx="2.743" cy="4.702" class="cls-3" data-name="Ellipse 601" rx="2.743" ry="4.702" transform="rotate(-30.34 196.085 -3.999)"/><ellipse id="Ellipse_602" cx="2.743" cy="4.702" class="cls-3" data-name="Ellipse 602" rx="2.743" ry="4.702" transform="rotate(-30.34 297.514 -101.514)"/><ellipse id="Ellipse_603" cx="2.743" cy="4.702" class="cls-3" data-name="Ellipse 603" rx="2.743" ry="4.702" transform="rotate(-30.34 251.767 -64.899)"/><ellipse id="Ellipse_604" cx="2.743" cy="4.702" class="cls-3" data-name="Ellipse 604" rx="2.743" ry="4.702" transform="rotate(-30.34 189.622 -43.002)"/><ellipse id="Ellipse_605" cx="2.743" cy="4.702" class="cls-3" data-name="Ellipse 605" rx="2.743" ry="4.702" transform="rotate(-30.34 277.547 -115.776)"/><ellipse id="Ellipse_606" cx="2.743" cy="4.702" class="cls-3" data-name="Ellipse 606" rx="2.743" ry="4.702" transform="rotate(-30.34 302.94 -135.131)"/><ellipse id="Ellipse_607" cx="2.743" cy="4.702" class="cls-3" data-name="Ellipse 607" rx="2.743" ry="4.702" transform="rotate(-30.34 192.554 -162.43)"/><ellipse id="Ellipse_608" cx="2.743" cy="4.702" class="cls-3" data-name="Ellipse 608" rx="2.743" ry="4.702" transform="rotate(-30.34 199.501 -132.03)"/><path id="Path_1938" d="M72.734 154.9s-2.821 14.733 10.971 29.78 35.344 26.88 42.083 12.539c.862-1.881 0-9.8 0-9.8l7.523-4.7" class="cls-4" data-name="Path 1938" transform="translate(-51.979 -42.835)"/><path id="Path_1939" d="M79.1 156s6.269 14.655 15.752 25.156 26.41 22.1 26.41 22.1" class="cls-4" data-name="Path 1939" transform="translate(-53.407 -43.072)"/><path id="Path_1940" d="M98.1 160.9s2.116 7.758 12.7 16.457a61.091 61.091 0 0 0 20.606 11.443" class="cls-4" data-name="Path 1940" transform="translate(-57.517 -44.132)"/><path id="Line_285" d="M0 0l16.771 9.091" class="cls-4" data-name="Line 285" transform="translate(73.889 154.462)"/><path id="Line_286" d="M0 14.028L6.113 0" class="cls-4" data-name="Line 286" transform="translate(47.949 158.616)"/></g><g id="Group_819" data-name="Group 819" transform="translate(43.404)"><path id="Path_1941" d="M227.558 153.566a7.435 7.435 0 0 0 3.056-2.978c5.407-9.874-1.489-30.877-1.489-30.877s2.508-18.965-5.407-31.739A102.4 102.4 0 0 0 204.6 66.029s-1.724-10.971-14.341-23.667-22.57-14.42-22.57-14.42-11.363-15.36-30.015-20.3c0 0-15.282-2.586-19.67 2.038 0 0-9.718-6.818-16.3-4.153" class="cls-4" data-name="Path 1941" transform="translate(-101.7 -4.912)"/></g><path id="Line_287" d="M0 11.912L19.827 0" class="cls-5" data-name="Line 287" transform="translate(150.767 147.713)"/><path id="Line_288" d="M0 10.815L18.103 0" class="cls-5" data-name="Line 288" transform="translate(25.301 .696)"/><path id="Line_289" d="M18.103 0L0 10.815" class="cls-4" data-name="Line 289" transform="translate(91.286 23.031)"/><path id="Line_290" d="M18.103 0L0 10.815" class="cls-4" data-name="Line 290" transform="translate(128.119 61.039)"/><path id="Line_291" d="M0 10.736L18.103 0" class="cls-4" data-name="Line 291" transform="translate(152.648 114.799)"/></g></svg>