<svg xmlns="http://www.w3.org/2000/svg" id="We_are_blockchain" data-name="We are_blockchain" viewBox="0 0 222.829 245.296"><defs><style>.cls-1,.cls-3,.cls-4,.cls-5,.cls-6{fill:none;stroke-miterlimit:10}.cls-1{stroke:#ef3b24;opacity:.5}.cls-2{fill:#ef3b24}.cls-3,.cls-4,.cls-5,.cls-6{stroke:#fbb818;stroke-width:4px}.cls-3,.cls-5,.cls-6{stroke-linecap:round}.cls-3{stroke-linejoin:round}.cls-6{stroke-dasharray:7.951 7.951}.cls-7{fill:#fbb818}</style></defs><path id="Path_1914" d="M168.583 59.753l50.45 175.137L22.8 14.6l183.4 86L32.315 202.484" class="cls-1" data-name="Path 1914" transform="translate(-2.128 -1.289)"/><path id="Line_261" d="M0 0l204.312 89.319" class="cls-1" data-name="Line 261" transform="translate(12.593 144.282)"/><circle id="Ellipse_572" cx="5.925" cy="5.925" r="5.925" class="cls-2" data-name="Ellipse 572" transform="translate(210.98 227.677)"/><circle id="Ellipse_573" cx="4.847" cy="4.847" r="4.847" class="cls-2" data-name="Ellipse 573" transform="translate(29.02 193.385)"/><circle id="Ellipse_574" cx="5.925" cy="5.925" r="5.925" class="cls-2" data-name="Ellipse 574" transform="translate(14.747 7.386)"/><circle id="Ellipse_575" cx="3.501" cy="3.501" r="3.501" class="cls-2" data-name="Ellipse 575" transform="translate(162.954 54.963)"/><path id="Path_1915" d="M143.751 168.6l-26.93 15.62L89.8 168.6v31.06l26.93 15.53v.09l.09-.09 26.93-15.53z" class="cls-3" data-name="Path 1915" transform="translate(-8.984 -17.047)"/><path id="Line_262" d="M0 0v31.06" class="cls-3" data-name="Line 262" transform="translate(107.836 167.173)"/><path id="Line_263" d="M0 0v30.97" class="cls-3" data-name="Line 263" transform="translate(189.884 122.648)"/><path id="Path_1916" d="M55.951 119L29.02 134.62 2 119v31.06l26.93 15.53h.09l26.93-15.53z" class="cls-3" data-name="Path 1916" transform="translate(0 -11.972)"/><path id="Path_1917" d="M2 117.24l27.02-15.44 26.93 15.44" class="cls-4" data-name="Path 1917" transform="translate(0 -10.212)"/><path id="Line_264" d="M0 0v30.97" class="cls-3" data-name="Line 264" transform="translate(29.02 122.648)"/><path id="Path_1918" d="M143.751 65.7L116.82 81.23 89.8 65.7v30.97l26.93 15.53v.09l.09-.09 26.93-15.53z" class="cls-3" data-name="Path 1918" transform="translate(-8.984 -6.518)"/><path id="Path_1919" d="M89.8 63.93l27.02-15.53 26.93 15.53" class="cls-4" data-name="Path 1919" transform="translate(-8.984 -4.748)"/><path id="Line_265" d="M0 0v31.06" class="cls-3" data-name="Line 265" transform="translate(107.836 74.712)"/><path id="Path_1920" d="M235.251 119l-27.02 15.62L181.3 119v31.06l26.93 15.53h.09l26.93-15.53z" class="cls-3" data-name="Path 1920" transform="translate(-18.346 -11.972)"/><path id="Path_1921" d="M181.3 117.24l26.93-15.44 27.02 15.44" class="cls-4" data-name="Path 1921" transform="translate(-18.346 -10.212)"/><path id="Line_266" d="M0 23.07L38.151 0" class="cls-3" data-name="Line 266" transform="translate(55.951 83.958)"/><path id="Line_267" d="M38.151 23.07L0 0" class="cls-3" data-name="Line 267" transform="translate(124.803 83.958)"/><path id="Path_1922" d="M184.774 143.1l-41.024 22.891-26.93-15.44-27.02 15.44" class="cls-5" data-name="Path 1922" transform="translate(-8.984 -14.437)"/><path id="Line_268" d="M59.875 33.753L0 0" class="cls-3" data-name="Line 268" transform="translate(42.755 130.368)"/><path id="Line_269" d="M0 0v47.846" class="cls-4" data-name="Line 269" transform="translate(107.836 88.267)"/><path id="Line_270" d="M0 0h107.003" class="cls-4" data-name="Line 270" transform="translate(55.951 122.648)"/><g id="Group_814" data-name="Group 814" transform="translate(107.836 2)"><g id="Group_813" data-name="Group 813"><path id="Line_271" d="M0 3.591V0" class="cls-5" data-name="Line 271" transform="translate(0 53.591)"/><path id="Line_272" d="M0 39.229V0" class="cls-6" data-name="Line 272" transform="translate(0 7.181)"/><path id="Line_273" d="M0 3.591V0" class="cls-5" data-name="Line 273"/></g></g><g id="Group_816" data-name="Group 816" transform="translate(107.836 186.114)"><g id="Group_815" data-name="Group 815"><path id="Line_274" d="M0 3.591V0" class="cls-5" data-name="Line 274" transform="translate(0 53.591)"/><path id="Line_275" d="M0 39.229V0" class="cls-6" data-name="Line 275" transform="translate(0 7.181)"/><path id="Line_276" d="M0 3.591V0" class="cls-5" data-name="Line 276"/></g></g><circle id="Ellipse_576" cx="7.271" cy="7.271" r="7.271" class="cls-7" data-name="Ellipse 576" transform="translate(196.796 92.037)"/><circle id="Ellipse_577" cx="5.027" cy="5.027" r="5.027" class="cls-7" data-name="Ellipse 577" transform="translate(7.566 139.255)"/></svg>