<svg xmlns="http://www.w3.org/2000/svg" id="We_are_VR" viewBox="0 0 231.567 253.712"><defs><style>.cls-1,.cls-2{fill:none;stroke-miterlimit:10}.cls-1{stroke:#0098FF;opacity:.5}.cls-2{stroke:#F7E135;stroke-width:4px}.cls-3{fill:#0098FF}.cls-4{fill:#0098FF}</style></defs><path id="Path_1942" d="M51.029 154.961L5 28.5l106.61 21.828-27.444 94.747 142.674 28.471" class="cls-1" data-name="Path 1942" transform="translate(-1.046 -5.96)"/><path id="Line_292" d="M0 101.706L10.835 0" class="cls-1" data-name="Line 292" transform="translate(38.436 148.289)"/><path id="Path_1943" d="M5 23.732l79.166 116.575L217.429 5.7" class="cls-1" data-name="Path 1943" transform="translate(-1.046 -1.192)"/><path id="Path_1944" d="M26.948 175.849c-3.875-2.373-6.248-7.592-6.248-15.027v-28.63c0-13.761 8.462-29.816 18.744-35.827l94.746-54.648c5.141-2.926 9.81-2.847 13.21-.317" class="cls-2" data-name="Path 1944" transform="translate(-4.329 -8.263)"/><path id="Path_1946" d="M94.679 182.606v-4.745c0-13.761 24.517-41.046 55.361-60.581 29.974-18.981 76.794-29.5 76.794-15.738v28.63c0 13.761-3.559 32.663-18.744 35.827 0 0-24.122 3.717-44.447 15.027s-50.3 39.623-50.3 39.623c-10.281 5.932-18.744-.4-18.744-14.157v-8.858" class="cls-2" data-name="Path 1946" transform="translate(-19.783 -19.924)"/><path id="Path_1947" d="M86.5 240.2c-4.192-2.214-6.8-7.592-6.8-15.343V216" class="cls-2" data-name="Path 1947" transform="translate(-16.667 -45.171)"/><path id="Path_1948" d="M79.6 174.006v-4.745c0-13.761 24.517-41.046 55.361-60.581 29.974-18.981 76.794-29.5 76.794-15.738" class="cls-2" data-name="Path 1948" transform="translate(-16.646 -18.125)"/><ellipse id="Ellipse_609" cx="19.218" cy="11.072" class="cls-2" data-name="Ellipse 609" rx="19.218" ry="11.072" transform="rotate(-59.67 185.375 -61.473)"/><ellipse id="Ellipse_610" cx="19.218" cy="11.072" class="cls-2" data-name="Ellipse 610" rx="19.218" ry="11.072" transform="rotate(-59.67 186.085 -1.817)"/><path id="Line_293" d="M0 0l62.084 44.843" class="cls-2" data-name="Line 293" transform="translate(142.436 32.663)"/><path id="Line_294" d="M60.265 35.036L0 0" class="cls-2" data-name="Line 294" transform="translate(22.224 167.27)"/><path id="Path_1949" d="M20.7 177.182l75.37 44.052v-13.682L20.7 163.5" class="cls-2" data-name="Path 1949" transform="translate(-4.329 -34.192)"/><path id="Path_1950" d="M261.8 132.182l9.332 5.457v-13.682L261.8 118.5" class="cls-2" data-name="Path 1950" transform="translate(-54.749 -24.782)"/><circle id="Ellipse_611" cx="6.406" cy="6.406" r="6.406" class="cls-3" data-name="Ellipse 611" transform="translate(104.158 37.962)"/><circle id="Ellipse_612" cx="4.983" cy="4.983" r="4.983" class="cls-3" data-name="Ellipse 612" transform="translate(78.138 134.132)"/><circle id="Ellipse_613" cx="4.113" cy="4.113" r="4.113" class="cls-3" data-name="Ellipse 613" transform="translate(45.159 144.176)"/><circle id="Ellipse_614" cx="3.954" cy="3.954" r="3.954" class="cls-4" data-name="Ellipse 614" transform="translate(0 18.586)"/><circle id="Ellipse_615" cx="5.773" cy="5.773" r="5.773" class="cls-4" data-name="Ellipse 615" transform="translate(220.021 161.813)"/><circle id="Ellipse_616" cx="4.508" cy="4.508" r="4.508" class="cls-4" data-name="Ellipse 616" transform="translate(211.875)"/><circle id="Ellipse_617" cx="3.717" cy="3.717" r="3.717" class="cls-4" data-name="Ellipse 617" transform="translate(34.719 246.278)"/></svg>