<svg xmlns="http://www.w3.org/2000/svg" xmlns:xlink="http://www.w3.org/1999/xlink" data-name="Group 589" viewBox="0 0 184 30.8"><defs><linearGradient id="c" x1=".454" x2="1.449" y1=".5" y2=".5" gradientUnits="objectBoundingBox"><stop offset="0" stop-color="#F7E135" stop-opacity="0"/><stop offset="1" stop-color="#F7E135"/></linearGradient><linearGradient id="a" x1=".499" x2=".499" y1="-.209" y2="1.075" gradientUnits="objectBoundingBox"><stop offset="0" stop-color="#F7E135"/><stop offset="1" stop-color="#F7E135"/></linearGradient><linearGradient id="d" x1=".5" x2=".5" y1="-1.427" y2="1.63" xlink:href="#a"/><linearGradient id="b" x1=".497" x2=".497" y1="-.201" y2="1.072" gradientUnits="objectBoundingBox"><stop offset="0" stop-color="#F7E135"/><stop offset="1" stop-color="#0098FF"/></linearGradient><linearGradient id="e" x1=".501" x2=".501" y1="-.204" y2="1.088" xlink:href="#b"/></defs><path fill="url(#c)" d="M98 11.3L0 5.4v25.4l98-5.9-2.1-6.8z" data-name="Path 1642"/><path fill="url(#a)" d="M178.4 15.8c0-4.3-5.1-7.8-13.1-7.8h-56.4s-4.4-8-13.1-8c0 0 0 9.9.1 15.9a5.823 5.823 0 0 0-4.7 5.8 5.911 5.911 0 0 0 5.9 5.9h81a5.911 5.911 0 0 0 5.9-5.9 6.072 6.072 0 0 0-5.6-5.9z" data-name="Path 1643"/><path fill="url(#d)" d="M178 23H97a5.926 5.926 0 0 1-5.4-3.6 5.45 5.45 0 0 0-.5 2.2 5.911 5.911 0 0 0 5.9 5.9h81a5.911 5.911 0 0 0 5.9-5.9 5.091 5.091 0 0 0-.5-2.2A5.926 5.926 0 0 1 178 23z" data-name="Path 1644"/><path fill="url(#b)" d="M176.5 15.8s.4-2.1-3.3-4.5-8.8-2.3-8.8-2.3h-3.8v6.7h15.9z" data-name="Path 1645"/><path fill="url(#e)" d="M0 0h32.2v6.7H0z" data-name="Rectangle 156" transform="translate(126.7 9)"/></svg>