<svg xmlns="http://www.w3.org/2000/svg" xmlns:xlink="http://www.w3.org/1999/xlink" data-name="Group 590" viewBox="0 0 146.4 30.8"><defs><linearGradient id="c" x1=".449" x2="-.398" y1=".5" y2=".5" gradientUnits="objectBoundingBox"><stop offset="0" stop-color="#F7E135" stop-opacity="0"/><stop offset="1" stop-color="#262261"/></linearGradient><linearGradient id="a" x1="2.766" x2="2.766" y1="-.209" y2="1.075" gradientUnits="objectBoundingBox"><stop offset="0" stop-color="#F7E135"/><stop offset="1" stop-color="#262261"/></linearGradient><linearGradient id="d" x1="2.766" x2="2.766" y1="-1.427" y2="1.63" xlink:href="#a"/><linearGradient id="b" x1="10.126" x2="10.126" y1="-.201" y2="1.072" gradientUnits="objectBoundingBox"><stop offset="0" stop-color="#F7E135"/><stop offset="1" stop-color="#0098FF"/></linearGradient><linearGradient id="e" x1="17.137" x2="17.137" y1="-.201" y2="1.072" xlink:href="#b"/></defs><path fill="url(#c)" d="M48.4 24.9l98 5.9V5.4l-98 5.9 2.1 6.8z" data-name="Path 1646"/><path fill="url(#a)" d="M5.5 15.8c0-4.3 5.1-7.8 13.1-7.8h20S43 0 51.7 0c0 0 0 9.9-.1 15.9a5.823 5.823 0 0 1 4.7 5.8 5.911 5.911 0 0 1-5.9 5.9H5.9A5.911 5.911 0 0 1 0 21.7a5.837 5.837 0 0 1 5.5-5.9z" data-name="Path 1647"/><path fill="url(#d)" d="M5.9 23h44.5a5.926 5.926 0 0 0 5.4-3.6 5.45 5.45 0 0 1 .5 2.2 5.911 5.911 0 0 1-5.9 5.9H5.9A5.911 5.911 0 0 1 0 21.6a5.091 5.091 0 0 1 .5-2.2A5.72 5.72 0 0 0 5.9 23z" data-name="Path 1648"/><path fill="url(#b)" d="M7.4 15.8s-.4-2.1 3.3-4.5S19.5 9 19.5 9h3.8v6.7H7.4z" data-name="Path 1649"/><path fill="url(#e)" d="M32.5 15.8h-7.6V9h7.6z" data-name="Path 1650"/></svg>